G04 ================== begin FILE IDENTIFICATION RECORD ==================*
G04 Layout Name:  CC13xxEM-7XD-7793.brd*
G04 Film Name:    paste_top*
G04 File Format:  Gerber RS274X*
G04 File Origin:  Cadence Allegro 16.6-S026*
G04 Origin Date:  Mon Jan 19 15:46:38 2015*
G04 *
G04 Layer:  PIN/FILMMASKTOP*
G04 Layer:  BOARD GEOMETRY/OUTLINE*
G04 *
G04 Offset:    (0.000 0.000)*
G04 Mirror:    No*
G04 Mode:      Positive*
G04 Rotation:  0*
G04 FullContactRelief:  No*
G04 UndefLineWidth:     0.020*
G04 ================== end FILE IDENTIFICATION RECORD ====================*
%FSLAX44Y44*MOMM*%
%IR0*IPPOS*OFA0.00000B0.00000*MIA0B0*SFA1.00000B1.00000*%
%AMMACRO23*
4,1,45,0.0,-.625,
.262,-.625,
.30759,-.621099,
.35181,-.60934,
.393317,-.590082,
.430849,-.563908,
.463265,-.531615,
.489582,-.494183,
.508998,-.45275,
.520925,-.408575,
.525,-.363,
.525,-.362,
.525,.362,
.521099,.40759,
.50934,.45181,
.490082,.493317,
.463908,.530849,
.431615,.563265,
.394183,.589582,
.35275,.608998,
.308575,.620925,
.263,.625,
.262,.625,
-.262,.625,
-.30759,.621099,
-.35181,.60934,
-.393317,.590082,
-.430849,.563908,
-.463265,.531615,
-.489582,.494183,
-.508998,.45275,
-.520925,.408575,
-.525,.363,
-.525,.362,
-.525,-.362,
-.521099,-.40759,
-.50934,-.45181,
-.490082,-.493317,
-.463908,-.530849,
-.431615,-.563265,
-.394183,-.589582,
-.35275,-.608998,
-.308575,-.620925,
-.263,-.625,
-.262,-.625,
0.0,-.625,
0.0*
%
%ADD23MACRO23*%
%AMMACRO22*
4,1,41,.3,0.0,
.3,.138,
.297824,.161869,
.291537,.184998,
.281328,.206683,
.26751,.226266,
.2505,.243153,
.230817,.256828,
.209058,.266879,
.185884,.272998,
.162,.275,
-.162,.275,
-.185884,.272998,
-.209058,.266879,
-.230817,.256828,
-.2505,.243153,
-.26751,.226266,
-.281328,.206683,
-.291537,.184998,
-.297824,.161869,
-.3,.138,
-.3,-.138,
-.297824,-.161869,
-.291537,-.184998,
-.281328,-.206683,
-.26751,-.226266,
-.2505,-.243153,
-.230817,-.256828,
-.209058,-.266879,
-.185884,-.272998,
-.162,-.275,
.162,-.275,
.185884,-.272998,
.209058,-.266879,
.230817,-.256828,
.2505,-.243153,
.26751,-.226266,
.281328,-.206683,
.291537,-.184998,
.297824,-.161869,
.3,-.138,
.3,0.0,
0.0*
%
%ADD22MACRO22*%
%AMMACRO21*
4,1,41,0.0,-.3,
.138,-.3,
.161869,-.297824,
.184998,-.291537,
.206683,-.281328,
.226266,-.26751,
.243153,-.2505,
.256828,-.230817,
.266879,-.209058,
.272998,-.185884,
.275,-.162,
.275,.162,
.272998,.185884,
.266879,.209058,
.256828,.230817,
.243153,.2505,
.226266,.26751,
.206683,.281328,
.184998,.291537,
.161869,.297824,
.138,.3,
-.138,.3,
-.161869,.297824,
-.184998,.291537,
-.206683,.281328,
-.226266,.26751,
-.243153,.2505,
-.256828,.230817,
-.266879,.209058,
-.272998,.185884,
-.275,.162,
-.275,-.162,
-.272998,-.185884,
-.266879,-.209058,
-.256828,-.230817,
-.243153,-.2505,
-.226266,-.26751,
-.206683,-.281328,
-.184998,-.291537,
-.161869,-.297824,
-.138,-.3,
0.0,-.3,
0.0*
%
%ADD21MACRO21*%
%AMMACRO19*
4,1,40,-.676,-.239,
-.676,.239,
-.672069,.280271,
-.661031,.320231,
-.643221,.357669,
-.619181,.391444,
-.589641,.420532,
-.555499,.444049,
-.517792,.46128,
-.477666,.471701,
-.437,.475,
.437,.475,
.478317,.47159,
.518414,.461058,
.556073,.443723,
.59015,.420111,
.619609,.390941,
.643555,.357099,
.66126,.319613,
.672187,.279621,
.676,.239,
.676,-.239,
.672069,-.280271,
.661031,-.320231,
.643221,-.357669,
.619181,-.391444,
.589641,-.420532,
.555499,-.444049,
.517792,-.46128,
.477666,-.471701,
.437,-.475,
-.437,-.475,
-.478317,-.47159,
-.518414,-.461058,
-.556073,-.443723,
-.59015,-.420111,
-.619609,-.390941,
-.643555,-.357099,
-.66126,-.319613,
-.672187,-.279621,
-.676,-.239,
0.0*
%
%ADD19MACRO19*%
%AMMACRO20*
4,1,40,.275,.135,
.275,-.135,
.272949,-.158443,
.266859,-.181173,
.256913,-.2025,
.243416,-.221776,
.226776,-.238416,
.2075,-.251913,
.186173,-.261859,
.163443,-.267949,
.14,-.27,
-.14,-.27,
-.163443,-.267949,
-.186173,-.261859,
-.2075,-.251913,
-.226776,-.238416,
-.243416,-.221776,
-.256913,-.2025,
-.266859,-.181173,
-.272949,-.158443,
-.275,-.135,
-.275,.135,
-.272949,.158443,
-.266859,.181173,
-.256913,.2025,
-.243416,.221776,
-.226776,.238416,
-.2075,.251913,
-.186173,.261859,
-.163443,.267949,
-.14,.27,
.14,.27,
.163443,.267949,
.186173,.261859,
.2075,.251913,
.226776,.238416,
.243416,.221776,
.256913,.2025,
.266859,.181173,
.272949,.158443,
.275,.135,
0.0*
%
%ADD20MACRO20*%
%AMMACRO10*
4,1,40,.135,-.275,
-.135,-.275,
-.158443,-.272949,
-.181173,-.266859,
-.2025,-.256913,
-.221776,-.243416,
-.238416,-.226776,
-.251913,-.2075,
-.261859,-.186173,
-.267949,-.163443,
-.27,-.14,
-.27,.14,
-.267949,.163443,
-.261859,.186173,
-.251913,.2075,
-.238416,.226776,
-.221776,.243416,
-.2025,.256913,
-.181173,.266859,
-.158443,.272949,
-.135,.275,
.135,.275,
.158443,.272949,
.181173,.266859,
.2025,.256913,
.221776,.243416,
.238416,.226776,
.251913,.2075,
.261859,.186173,
.267949,.163443,
.27,.14,
.27,-.14,
.267949,-.163443,
.261859,-.186173,
.251913,-.2075,
.238416,-.226776,
.221776,-.243416,
.2025,-.256913,
.181173,-.266859,
.158443,-.272949,
.135,-.275,
0.0*
%
%ADD10MACRO10*%
%AMMACRO17*
4,1,40,.188,-.45,
-.188,-.45,
-.220551,-.447065,
-.252099,-.438521,
-.281683,-.42463,
-.308406,-.405812,
-.331455,-.38264,
-.35013,-.355817,
-.363863,-.326159,
-.372238,-.294567,
-.375,-.262,
-.375,.262,
-.372238,.294567,
-.363863,.326159,
-.35013,.355817,
-.331455,.38264,
-.308406,.405812,
-.281683,.42463,
-.252099,.438521,
-.220551,.447065,
-.188,.45,
.188,.45,
.220551,.447065,
.252099,.438521,
.281683,.42463,
.308406,.405812,
.331455,.38264,
.35013,.355817,
.363863,.326159,
.372238,.294567,
.375,.262,
.375,-.262,
.372238,-.294567,
.363863,-.326159,
.35013,-.355817,
.331455,-.38264,
.308406,-.405812,
.281683,-.42463,
.252099,-.438521,
.220551,-.447065,
.188,-.45,
0.0*
%
%ADD17MACRO17*%
%ADD25C,1.801*%
%ADD14R,5.25X5.25*%
%AMMACRO16*
4,1,40,-.9,.25,
-.9,-.25,
-.896202,-.293412,
-.884923,-.335505,
-.866506,-.375,
-.841511,-.410697,
-.810697,-.441511,
-.775,-.466506,
-.735505,-.484923,
-.693412,-.496202,
-.65,-.5,
.65,-.5,
.693412,-.496202,
.735505,-.484923,
.775,-.466506,
.810697,-.441511,
.841511,-.410697,
.866506,-.375,
.884923,-.335505,
.896202,-.293412,
.9,-.25,
.9,.25,
.896202,.293412,
.884923,.335505,
.866506,.375,
.841511,.410697,
.810697,.441511,
.775,.466506,
.735505,.484923,
.693412,.496202,
.65,.5,
-.65,.5,
-.693412,.496202,
-.735505,.484923,
-.775,.466506,
-.810697,.441511,
-.841511,.410697,
-.866506,.375,
-.884923,.335505,
-.896202,.293412,
-.9,.25,
0.0*
%
%ADD16MACRO16*%
%AMMACRO15*
4,1,40,-.135,.275,
.135,.275,
.158443,.272949,
.181173,.266859,
.2025,.256913,
.221776,.243416,
.238416,.226776,
.251913,.2075,
.261859,.186173,
.267949,.163443,
.27,.14,
.27,-.14,
.267949,-.163443,
.261859,-.186173,
.251913,-.2075,
.238416,-.226776,
.221776,-.243416,
.2025,-.256913,
.181173,-.266859,
.158443,-.272949,
.135,-.275,
-.135,-.275,
-.158443,-.272949,
-.181173,-.266859,
-.2025,-.256913,
-.221776,-.243416,
-.238416,-.226776,
-.251913,-.2075,
-.261859,-.186173,
-.267949,-.163443,
-.27,-.14,
-.27,.14,
-.267949,.163443,
-.261859,.186173,
-.251913,.2075,
-.238416,.226776,
-.221776,.243416,
-.2025,.256913,
-.181173,.266859,
-.158443,.272949,
-.135,.275,
0.0*
%
%ADD15MACRO15*%
%AMMACRO11*
4,1,40,-.275,-.135,
-.275,.135,
-.272949,.158443,
-.266859,.181173,
-.256913,.2025,
-.243416,.221776,
-.226776,.238416,
-.2075,.251913,
-.186173,.261859,
-.163443,.267949,
-.14,.27,
.14,.27,
.163443,.267949,
.186173,.261859,
.2075,.251913,
.226776,.238416,
.243416,.221776,
.256913,.2025,
.266859,.181173,
.272949,.158443,
.275,.135,
.275,-.135,
.272949,-.158443,
.266859,-.181173,
.256913,-.2025,
.243416,-.221776,
.226776,-.238416,
.2075,-.251913,
.186173,-.261859,
.163443,-.267949,
.14,-.27,
-.14,-.27,
-.163443,-.267949,
-.186173,-.261859,
-.2075,-.251913,
-.226776,-.238416,
-.243416,-.221776,
-.256913,-.2025,
-.266859,-.181173,
-.272949,-.158443,
-.275,-.135,
0.0*
%
%ADD11MACRO11*%
%AMMACRO18*
4,1,41,-.45,-.188,
-.45,.188,
-.447065,.220551,
-.438521,.252099,
-.42463,.281683,
-.405812,.308406,
-.38264,.331455,
-.355817,.35013,
-.326159,.363863,
-.294567,.372238,
-.262,.375,
-.262,.375,
.262,.375,
.294567,.372238,
.326159,.363863,
.355817,.35013,
.38264,.331455,
.405812,.308406,
.42463,.281683,
.438521,.252099,
.447065,.220551,
.45,.188,
.45,-.188,
.447065,-.220551,
.438521,-.252099,
.42463,-.281683,
.405812,-.308406,
.38264,-.331455,
.355817,-.35013,
.326159,-.363863,
.294567,-.372238,
.262,-.375,
-.262,-.375,
-.294567,-.372238,
-.326159,-.363863,
-.355817,-.35013,
-.38264,-.331455,
-.405812,-.308406,
-.42463,-.281683,
-.438521,-.252099,
-.447065,-.220551,
-.45,-.188,
0.0*
%
%ADD18MACRO18*%
%ADD13O,.9X.3*%
%ADD12O,.3X.9*%
%AMMACRO24*
4,1,41,0.0,-1.,
.519,-1.,
.602564,-.992645,
.683582,-.970892,
.759592,-.9354,
.828283,-.887248,
.88757,-.8279,
.93565,-.759158,
.971063,-.683112,
.992732,-.602072,
1.,-.519,
1.,.519,
.992645,.602564,
.970892,.683582,
.9354,.759592,
.887248,.828283,
.8279,.88757,
.759158,.93565,
.683112,.971063,
.602072,.992732,
.519,1.,
-.519,1.,
-.602564,.992645,
-.683582,.970892,
-.759592,.9354,
-.828283,.887248,
-.88757,.8279,
-.93565,.759158,
-.971063,.683112,
-.992732,.602072,
-1.,.519,
-1.,-.519,
-.992645,-.602564,
-.970892,-.683582,
-.9354,-.759592,
-.887248,-.828283,
-.8279,-.88757,
-.759158,-.93565,
-.683112,-.971063,
-.602072,-.992732,
-.519,-1.,
0.0,-1.,
0.0*
%
%ADD24MACRO24*%
%ADD26C,.02*%
G75*
%LPD*%
G75*
G54D10*
X1155000Y1086000D03*
Y1094000D03*
X1164000Y1086000D03*
Y1094000D03*
X1197000Y1206500D03*
Y1214500D03*
X1220000Y1188000D03*
Y1196000D03*
X1271500Y1075500D03*
Y1083500D03*
X1263000Y1075500D03*
Y1083500D03*
X1286000Y1207500D03*
Y1215500D03*
G54D11*
X1156000Y1153000D03*
X1164000D03*
X1230000Y1171000D03*
X1238000D03*
X1294500Y1207500D03*
X1302500D03*
X1310500D03*
X1318500D03*
G54D20*
X1246000Y1179000D03*
X1238000D03*
X1266500Y1128000D03*
X1258500D03*
X1266500Y1139500D03*
X1258500D03*
X1263000Y1158000D03*
X1255000D03*
X1290500Y1140000D03*
X1263000Y1166000D03*
X1255000D03*
X1292000Y1186000D03*
X1284000D03*
X1298500Y1140000D03*
X1310500Y1224500D03*
X1302500D03*
G54D12*
X1201000Y1090500D03*
X1196000D03*
X1191000D03*
X1186000D03*
X1181000D03*
Y1160000D03*
X1186000D03*
X1191000D03*
X1196000D03*
X1201000D03*
X1236000Y1090500D03*
X1231000D03*
X1226000D03*
X1221000D03*
X1216000D03*
X1211000D03*
X1206000D03*
Y1160000D03*
X1211000D03*
X1216000D03*
X1221000D03*
X1226000D03*
X1231000D03*
X1236000D03*
G54D21*
X1229800Y1179000D03*
X1220000D03*
X1241000Y1207500D03*
X1250800D03*
X1277800D03*
X1268000D03*
X1312300Y1234500D03*
X1302500D03*
G54D13*
X1173750Y1097750D03*
Y1102750D03*
Y1107750D03*
Y1112750D03*
Y1117750D03*
Y1122750D03*
Y1127750D03*
Y1132750D03*
Y1137750D03*
Y1142750D03*
Y1147750D03*
Y1152750D03*
X1243250Y1112750D03*
Y1107750D03*
Y1102750D03*
Y1097750D03*
Y1152750D03*
Y1147750D03*
Y1142750D03*
Y1137750D03*
Y1132750D03*
Y1127750D03*
Y1122750D03*
Y1117750D03*
G54D22*
X1238000Y1197300D03*
Y1187500D03*
G54D14*
X1208500Y1125250D03*
G54D23*
X1284000Y1151700D03*
Y1174000D03*
X1301300Y1151700D03*
Y1174000D03*
G54D24*
X1338500Y1179500D03*
Y1235500D03*
X1394500Y1179500D03*
Y1235500D03*
G54D15*
X1197000Y1198000D03*
Y1190000D03*
X1230000Y1197000D03*
Y1189000D03*
X1233500Y1215000D03*
Y1207000D03*
X1259500Y1199500D03*
Y1207500D03*
X1310500Y1215500D03*
Y1207500D03*
G54D16*
X1182000Y1192000D03*
Y1217000D03*
G54D25*
X1366500Y1207500D03*
G54D26*
G01X1059960Y1376000D02*
Y937000D01*
X1468990D01*
Y1376000D01*
X1059960D01*
G54D17*
X1243000Y1048500D03*
X1229000D03*
X1376000Y1059000D03*
X1362000D03*
X1376000Y1070000D03*
X1362000D03*
G54D18*
X1241500Y1063000D03*
X1230000D03*
X1241500Y1077000D03*
X1230000D03*
X1253000Y1063000D03*
Y1077000D03*
G54D19*
X1216000Y1055000D03*
Y1071000D03*
M02*
