G04 ================== begin FILE IDENTIFICATION RECORD ==================*
G04 Layout Name:  CC13xxEM-7XD-7793.brd*
G04 Film Name:    silk_top*
G04 File Format:  Gerber RS274X*
G04 File Origin:  Cadence Allegro 16.6-S026*
G04 Origin Date:  Mon Jan 19 15:46:38 2015*
G04 *
G04 Layer:  COMPONENT VALUE/SILKSCREEN_TOP*
G04 Layer:  REF DES/SILKSCREEN_TOP*
G04 Layer:  PACKAGE GEOMETRY/SILKSCREEN_TOP*
G04 Layer:  MANUFACTURING/AUTOSILK_TOP*
G04 Layer:  BOARD GEOMETRY/OUTLINE*
G04 *
G04 Offset:    (0.000 0.000)*
G04 Mirror:    No*
G04 Mode:      Positive*
G04 Rotation:  0*
G04 FullContactRelief:  No*
G04 UndefLineWidth:     0.020*
G04 ================== end FILE IDENTIFICATION RECORD ====================*
%FSLAX44Y44*MOMM*%
%IR0*IPPOS*OFA0.00000B0.00000*MIA0B0*SFA1.00000B1.00000*%
%ADD10C,.1*%
%ADD11C,.3*%
%ADD12C,.02*%
%ADD13C,.127*%
G75*
%LPD*%
G75*
G36*
G01X1089220Y1362250D02*
X1086940D01*
Y1369000D01*
X1077500D01*
Y1354890D01*
X1067480D01*
X1067560Y1354530D01*
X1067650Y1354180D01*
X1067740Y1353830D01*
X1067840Y1353490D01*
X1067960Y1353150D01*
X1068080Y1352830D01*
X1068230Y1352520D01*
X1068400Y1352230D01*
X1068590Y1351950D01*
X1068700Y1351820D01*
X1069050Y1351460D01*
X1069310Y1351230D01*
X1069590Y1351010D01*
X1069860Y1350800D01*
X1070140Y1350580D01*
X1070450Y1350330D01*
X1070670Y1350130D01*
X1070920Y1349880D01*
X1071160Y1349630D01*
X1071380Y1349360D01*
X1071600Y1349100D01*
X1071820Y1348820D01*
X1072030Y1348550D01*
X1072140Y1348190D01*
X1072240Y1347840D01*
X1072340Y1347480D01*
X1072450Y1347120D01*
X1072560Y1346770D01*
X1072670Y1346420D01*
X1072800Y1346070D01*
X1072920Y1345720D01*
X1073060Y1345380D01*
X1073210Y1345040D01*
X1073420Y1344590D01*
X1073540Y1344370D01*
X1073720Y1344040D01*
X1073930Y1343740D01*
X1074180Y1343450D01*
X1074470Y1343200D01*
X1074790Y1343000D01*
X1075160Y1342850D01*
X1075540Y1342760D01*
X1075910Y1342750D01*
X1076190Y1342810D01*
X1076580Y1342990D01*
X1076870Y1343220D01*
X1077140Y1343500D01*
X1077380Y1343800D01*
X1077630Y1344110D01*
X1077860Y1344410D01*
X1078110Y1344700D01*
X1078360Y1344960D01*
X1078640Y1345190D01*
X1078970Y1345380D01*
X1079300Y1345510D01*
X1079760Y1345580D01*
X1080040Y1345550D01*
X1080400Y1345450D01*
X1080740Y1345280D01*
X1081140Y1344980D01*
X1081340Y1344810D01*
X1081590Y1344530D01*
X1081820Y1344240D01*
X1082020Y1343930D01*
X1082210Y1343610D01*
X1082330Y1343400D01*
X1082570Y1342960D01*
X1082740Y1342630D01*
X1082910Y1342300D01*
X1083080Y1341970D01*
X1083240Y1341640D01*
X1083390Y1341300D01*
X1083520Y1341020D01*
X1083700Y1340630D01*
X1083850Y1340290D01*
X1084010Y1339950D01*
X1084160Y1339610D01*
X1084310Y1339280D01*
X1084470Y1338940D01*
X1084710Y1338450D01*
X1084800Y1338280D01*
X1084960Y1337950D01*
X1085140Y1337620D01*
X1085320Y1337300D01*
X1085520Y1336990D01*
X1085720Y1336670D01*
X1085920Y1336370D01*
X1086150Y1336060D01*
X1086290Y1335870D01*
X1086620Y1335480D01*
X1086880Y1335200D01*
X1087140Y1334930D01*
X1087420Y1334670D01*
X1087700Y1334420D01*
X1087990Y1334190D01*
X1088280Y1333970D01*
X1088670Y1333700D01*
X1088860Y1333580D01*
X1089160Y1333410D01*
X1089460Y1333250D01*
X1089780Y1333120D01*
X1090100Y1333010D01*
X1090440Y1332910D01*
X1090800Y1332830D01*
X1091170Y1332770D01*
X1091570Y1332730D01*
X1092000Y1332710D01*
X1092630Y1332700D01*
X1092940Y1332720D01*
X1093440Y1332750D01*
X1093920Y1332820D01*
X1094350Y1332920D01*
X1094690Y1333050D01*
X1094920Y1333230D01*
X1095010Y1333500D01*
X1094930Y1333740D01*
X1094720Y1334060D01*
X1094450Y1334400D01*
X1094310Y1335350D01*
X1094190Y1336290D01*
X1094130Y1337200D01*
X1094150Y1338070D01*
X1094250Y1338760D01*
X1094540Y1339660D01*
X1094930Y1340370D01*
X1095420Y1341020D01*
X1096010Y1341640D01*
X1096690Y1342210D01*
X1097440Y1342740D01*
X1098260Y1343250D01*
X1099140Y1343720D01*
X1100060Y1344180D01*
X1101010Y1344630D01*
X1101980Y1345060D01*
X1102960Y1345490D01*
X1104710D01*
Y1353500D01*
X1102930Y1355280D01*
Y1362250D01*
X1094810D01*
X1093820Y1356970D01*
X1096200D01*
X1095600Y1353610D01*
X1093420D01*
X1092090Y1346560D01*
X1093810Y1346570D01*
Y1343740D01*
G02X1093090Y1342820I-803J-113D01*
G01X1087540D01*
G02X1085900Y1344100I-109J1551D01*
G01Y1344900D01*
X1087460Y1353610D01*
X1085140D01*
X1085860Y1356970D01*
X1088340D01*
X1089220Y1362250D01*
G37*
G36*
G01D02*
X1086940D01*
Y1369000D01*
X1077500D01*
Y1354890D01*
X1067480D01*
X1067560Y1354530D01*
X1067650Y1354180D01*
X1067740Y1353830D01*
X1067840Y1353490D01*
X1067960Y1353150D01*
X1068080Y1352830D01*
X1068230Y1352520D01*
X1068400Y1352230D01*
X1068590Y1351950D01*
X1068700Y1351820D01*
X1069050Y1351460D01*
X1069310Y1351230D01*
X1069590Y1351010D01*
X1069860Y1350800D01*
X1070140Y1350580D01*
X1070450Y1350330D01*
X1070670Y1350130D01*
X1070920Y1349880D01*
X1071160Y1349630D01*
X1071380Y1349360D01*
X1071600Y1349100D01*
X1071820Y1348820D01*
X1072030Y1348550D01*
X1072140Y1348190D01*
X1072240Y1347840D01*
X1072340Y1347480D01*
X1072450Y1347120D01*
X1072560Y1346770D01*
X1072670Y1346420D01*
X1072800Y1346070D01*
X1072920Y1345720D01*
X1073060Y1345380D01*
X1073210Y1345040D01*
X1073420Y1344590D01*
X1073540Y1344370D01*
X1073720Y1344040D01*
X1073930Y1343740D01*
X1074180Y1343450D01*
X1074470Y1343200D01*
X1074790Y1343000D01*
X1075160Y1342850D01*
X1075540Y1342760D01*
X1075910Y1342750D01*
X1076190Y1342810D01*
X1076580Y1342990D01*
X1076870Y1343220D01*
X1077140Y1343500D01*
X1077380Y1343800D01*
X1077630Y1344110D01*
X1077860Y1344410D01*
X1078110Y1344700D01*
X1078360Y1344960D01*
X1078640Y1345190D01*
X1078970Y1345380D01*
X1079300Y1345510D01*
X1079760Y1345580D01*
X1080040Y1345550D01*
X1080400Y1345450D01*
X1080740Y1345280D01*
X1081140Y1344980D01*
X1081340Y1344810D01*
X1081590Y1344530D01*
X1081820Y1344240D01*
X1082020Y1343930D01*
X1082210Y1343610D01*
X1082330Y1343400D01*
X1082570Y1342960D01*
X1082740Y1342630D01*
X1082910Y1342300D01*
X1083080Y1341970D01*
X1083240Y1341640D01*
X1083390Y1341300D01*
X1083520Y1341020D01*
X1083700Y1340630D01*
X1083850Y1340290D01*
X1084010Y1339950D01*
X1084160Y1339610D01*
X1084310Y1339280D01*
X1084470Y1338940D01*
X1084710Y1338450D01*
X1084800Y1338280D01*
X1084960Y1337950D01*
X1085140Y1337620D01*
X1085320Y1337300D01*
X1085520Y1336990D01*
X1085720Y1336670D01*
X1085920Y1336370D01*
X1086150Y1336060D01*
X1086290Y1335870D01*
X1086620Y1335480D01*
X1086880Y1335200D01*
X1087140Y1334930D01*
X1087420Y1334670D01*
X1087700Y1334420D01*
X1087990Y1334190D01*
X1088280Y1333970D01*
X1088670Y1333700D01*
X1088860Y1333580D01*
X1089160Y1333410D01*
X1089460Y1333250D01*
X1089780Y1333120D01*
X1090100Y1333010D01*
X1090440Y1332910D01*
X1090800Y1332830D01*
X1091170Y1332770D01*
X1091570Y1332730D01*
X1092000Y1332710D01*
X1092630Y1332700D01*
X1092940Y1332720D01*
X1093440Y1332750D01*
X1093920Y1332820D01*
X1094350Y1332920D01*
X1094690Y1333050D01*
X1094920Y1333230D01*
X1095010Y1333500D01*
X1094930Y1333740D01*
X1094720Y1334060D01*
X1094450Y1334400D01*
X1094310Y1335350D01*
X1094190Y1336290D01*
X1094130Y1337200D01*
X1094150Y1338070D01*
X1094250Y1338760D01*
X1094540Y1339660D01*
X1094930Y1340370D01*
X1095420Y1341020D01*
X1096010Y1341640D01*
X1096690Y1342210D01*
X1097440Y1342740D01*
X1098260Y1343250D01*
X1099140Y1343720D01*
X1100060Y1344180D01*
X1101010Y1344630D01*
X1101980Y1345060D01*
X1102960Y1345490D01*
X1104710D01*
Y1353500D01*
X1102930Y1355280D01*
Y1362250D01*
X1094810D01*
X1093820Y1356970D01*
X1096200D01*
X1095600Y1353610D01*
X1093420D01*
X1092090Y1346560D01*
X1093810Y1346570D01*
Y1343740D01*
G02X1093090Y1342820I-803J-113D01*
G01X1087540D01*
G02X1085900Y1344100I-109J1551D01*
G01Y1344900D01*
X1087460Y1353610D01*
X1085140D01*
X1085860Y1356970D01*
X1088340D01*
X1089220Y1362250D01*
G37*
G36*
G01X1119020Y1347560D02*
Y1346620D01*
X1113880D01*
Y1347560D01*
X1114450D01*
G03X1114940Y1348050I-3J493D01*
G01Y1359490D01*
G03X1114450Y1359990I-493J7D01*
G01X1111530D01*
G03X1111180Y1359840I5J-494D01*
G01X1109870Y1358540D01*
X1110350Y1361600D01*
X1122540D01*
X1123030Y1358540D01*
X1121710Y1359840D01*
G03X1121370Y1359990I-354J-343D01*
G01X1118450D01*
G03X1117950Y1359490I-5J-495D01*
G01Y1348050D01*
G03X1118450Y1347560I494J4D01*
G01X1119020D01*
G37*
G36*
G01X1090060Y1362810D02*
X1090970Y1366790D01*
X1095130D01*
X1094220Y1362810D01*
X1090060D01*
G37*
G36*
G01Y1362250D02*
X1086890Y1346570D01*
X1091050D01*
X1094220Y1362250D01*
X1090060D01*
G37*
G36*
G01X1119020Y1347560D02*
Y1346620D01*
X1113880D01*
Y1347560D01*
X1114450D01*
G03X1114940Y1348050I-3J493D01*
G01Y1359490D01*
G03X1114450Y1359990I-493J7D01*
G01X1111530D01*
G03X1111180Y1359840I5J-494D01*
G01X1109870Y1358540D01*
X1110350Y1361600D01*
X1122540D01*
X1123030Y1358540D01*
X1121710Y1359840D01*
G03X1121370Y1359990I-354J-343D01*
G01X1118450D01*
G03X1117950Y1359490I-5J-495D01*
G01Y1348050D01*
G03X1118450Y1347560I494J4D01*
G01X1119020D01*
G37*
G36*
G01X1090060Y1362810D02*
X1090970Y1366790D01*
X1095130D01*
X1094220Y1362810D01*
X1090060D01*
G37*
G36*
G01Y1362250D02*
X1086890Y1346570D01*
X1091050D01*
X1094220Y1362250D01*
X1090060D01*
G37*
G36*
G01X1149080Y1329760D02*
Y1329020D01*
X1145020D01*
Y1329760D01*
X1145470D01*
G03X1145860Y1330140I3J387D01*
G01Y1339180D01*
G03X1145470Y1339570I-388J2D01*
G01X1143170D01*
G03X1142890Y1339460I-9J-390D01*
G01X1141860Y1338430D01*
X1142240Y1340850D01*
X1151870D01*
X1152250Y1338430D01*
X1151210Y1339460D01*
G03X1150940Y1339570I-271J-279D01*
G01X1148630D01*
G03X1148240Y1339180I-1J-389D01*
G01Y1330140D01*
G03X1148630Y1329760I388J8D01*
G01X1149080D01*
G37*
G36*
G01X1153900Y1330130D02*
Y1339760D01*
G03X1153500Y1340160I-397J3D01*
G01X1152770D01*
Y1340830D01*
X1160150D01*
X1160390Y1340790D01*
X1160630Y1340750D01*
X1160750Y1340730D01*
X1160860Y1340700D01*
X1161010Y1340660D01*
X1161100Y1340640D01*
X1161210Y1340600D01*
X1161330Y1340550D01*
X1161440Y1340500D01*
X1161550Y1340450D01*
X1161660Y1340390D01*
X1161760Y1340330D01*
X1161870Y1340260D01*
X1161960Y1340190D01*
X1162060Y1340120D01*
X1162160Y1340040D01*
X1162250Y1339950D01*
X1162300Y1339900D01*
X1162420Y1339770D01*
X1162500Y1339680D01*
X1162570Y1339580D01*
X1162640Y1339480D01*
X1162710Y1339370D01*
X1162770Y1339260D01*
X1162820Y1339150D01*
X1162870Y1339040D01*
X1162910Y1338930D01*
X1162950Y1338810D01*
X1162980Y1338680D01*
X1163000Y1338580D01*
X1163020Y1338460D01*
X1163030Y1338340D01*
X1163040Y1338220D01*
X1163050Y1338100D01*
X1163060Y1337610D01*
Y1337500D01*
X1163070Y1337360D01*
X1163080Y1337120D01*
X1163090Y1336990D01*
Y1336870D01*
Y1336750D01*
X1163080Y1336630D01*
X1163070Y1336510D01*
X1163050Y1336450D01*
X1163040Y1336390D01*
X1163030Y1336350D01*
X1163010Y1336280D01*
X1162980Y1336220D01*
X1162960Y1336160D01*
X1162930Y1336110D01*
X1162900Y1336060D01*
X1162840Y1335950D01*
X1162770Y1335840D01*
X1162690Y1335750D01*
X1162610Y1335650D01*
X1162520Y1335560D01*
X1162430Y1335480D01*
X1162340Y1335400D01*
X1162270Y1335350D01*
X1162140Y1335270D01*
X1162040Y1335210D01*
X1161950Y1335160D01*
X1161840Y1335100D01*
X1161740Y1335060D01*
X1161530Y1334960D01*
X1161430Y1334920D01*
X1161320Y1334870D01*
X1161210Y1334820D01*
X1161100Y1334760D01*
X1160980Y1334700D01*
X1160870Y1334630D01*
X1160750Y1334560D01*
X1160620Y1334470D01*
X1160580Y1334430D01*
X1160550Y1334410D01*
X1160520Y1334390D01*
X1160500Y1334370D01*
X1160480Y1334340D01*
X1160470Y1334320D01*
X1160460Y1334290D01*
Y1334280D01*
X1160470Y1334260D01*
X1160480Y1334240D01*
X1160500Y1334220D01*
X1160520Y1334200D01*
X1160550Y1334180D01*
X1160610Y1334140D01*
X1160720Y1334080D01*
X1160800Y1334030D01*
X1160860Y1333990D01*
X1160920Y1333960D01*
X1160980Y1333920D01*
X1161030Y1333880D01*
X1161080Y1333850D01*
X1161170Y1333770D01*
X1161250Y1333690D01*
X1161330Y1333610D01*
X1161410Y1333530D01*
X1161490Y1333430D01*
X1161560Y1333360D01*
X1161630Y1333270D01*
X1161710Y1333180D01*
X1161780Y1333080D01*
X1161850Y1332980D01*
X1162000Y1332780D01*
X1162070Y1332680D01*
X1162130Y1332580D01*
X1162200Y1332470D01*
X1162230Y1332410D01*
X1162380Y1332150D01*
X1162490Y1331930D01*
X1162600Y1331720D01*
X1162720Y1331500D01*
X1162780Y1331400D01*
X1162840Y1331300D01*
X1162890Y1331240D01*
X1162980Y1331100D01*
X1163060Y1331010D01*
X1163130Y1330910D01*
X1163210Y1330820D01*
X1163300Y1330730D01*
X1163470Y1330560D01*
X1163680Y1330350D01*
X1163820Y1330220D01*
X1164000Y1330060D01*
X1164250Y1329840D01*
G03X1164510Y1329740I262J292D01*
G01X1165010D01*
Y1328990D01*
X1162260D01*
G02X1161960Y1329120I-5J399D01*
G01X1161410Y1329740D01*
X1161320Y1329840D01*
X1161230Y1329940D01*
X1161140Y1330040D01*
X1161050Y1330140D01*
X1160960Y1330240D01*
X1160880Y1330350D01*
X1160800Y1330460D01*
X1160710Y1330560D01*
X1160640Y1330660D01*
X1160560Y1330780D01*
X1160480Y1330900D01*
X1160410Y1331020D01*
X1160340Y1331130D01*
X1160280Y1331250D01*
X1160220Y1331380D01*
X1160160Y1331500D01*
X1160110Y1331620D01*
X1160060Y1331750D01*
X1160010Y1331880D01*
X1159970Y1332010D01*
X1159920Y1332130D01*
X1159870Y1332260D01*
X1159820Y1332390D01*
X1159770Y1332510D01*
X1159740Y1332580D01*
X1159640Y1332750D01*
X1159580Y1332870D01*
X1159510Y1332980D01*
X1159430Y1333100D01*
X1159360Y1333210D01*
X1159310Y1333290D01*
X1159210Y1333450D01*
X1159140Y1333560D01*
X1159060Y1333670D01*
X1158980Y1333780D01*
X1158880Y1333880D01*
X1158810Y1333940D01*
X1158670Y1334040D01*
X1158550Y1334100D01*
X1158430Y1334160D01*
X1158300Y1334220D01*
X1156260D01*
Y1335340D01*
X1158610D01*
X1158750Y1335350D01*
X1158890Y1335360D01*
X1158990Y1335370D01*
X1159160Y1335390D01*
X1159300Y1335420D01*
X1159430Y1335450D01*
X1159500Y1335470D01*
X1159690Y1335550D01*
X1159820Y1335620D01*
X1159940Y1335690D01*
X1160050Y1335780D01*
X1160160Y1335870D01*
X1160260Y1335970D01*
X1160350Y1336080D01*
X1160440Y1336200D01*
X1160510Y1336320D01*
X1160560Y1336430D01*
X1160610Y1336570D01*
X1160650Y1336700D01*
X1160670Y1336840D01*
X1160690Y1336970D01*
X1160700Y1337110D01*
Y1337250D01*
Y1337390D01*
Y1337560D01*
X1160690Y1337680D01*
X1160680Y1337820D01*
X1160670Y1337960D01*
X1160650Y1338100D01*
X1160630Y1338230D01*
X1160600Y1338370D01*
X1160560Y1338500D01*
X1160520Y1338630D01*
X1160460Y1338750D01*
X1160420Y1338820D01*
X1160310Y1338990D01*
X1160220Y1339100D01*
X1160130Y1339200D01*
X1160020Y1339290D01*
X1159910Y1339380D01*
X1159790Y1339450D01*
X1159710Y1339490D01*
X1159530Y1339550D01*
X1159400Y1339580D01*
X1159260Y1339600D01*
X1159130Y1339620D01*
X1158990Y1339640D01*
X1156220D01*
Y1330130D01*
G03X1156620Y1329740I394J4D01*
G01X1157520D01*
Y1328990D01*
X1152770D01*
Y1329740D01*
X1153500D01*
G03X1153900Y1330130I4J396D01*
G37*
G36*
G01X1117880Y1330710D02*
G03X1118670Y1329920I793J3D01*
G01X1119100D01*
Y1329020D01*
X1113880Y1329000D01*
Y1329920D01*
X1114300D01*
G03X1115100Y1330710I6J794D01*
G01Y1342990D01*
G03X1114300Y1343780I-793J-2D01*
G01X1113880D01*
Y1344460D01*
X1119020D01*
Y1343780D01*
X1118670D01*
G03X1117880Y1342990I1J-791D01*
G01Y1330710D01*
G37*
G36*
G01X1119790Y1329920D02*
X1120540D01*
G03X1120940Y1330320I2J398D01*
G01Y1339620D01*
G03X1120540Y1340010I-397J-7D01*
G01X1119730D01*
Y1340890D01*
X1123380D01*
G02X1123680Y1340750I-2J-395D01*
G01X1129360Y1334180D01*
Y1339540D01*
G03X1128960Y1339930I-396J-6D01*
G01X1127990D01*
Y1340890D01*
X1131980D01*
Y1339930D01*
X1131140D01*
G03X1130750Y1339540I4J-394D01*
G01Y1329020D01*
X1130130D01*
G02X1129830Y1329150I-7J395D01*
G01X1122970Y1337100D01*
Y1330320D01*
G03X1123360Y1329920I396J-4D01*
G01X1123960D01*
Y1329020D01*
X1119790D01*
Y1329920D01*
G37*
G36*
G01X1133220Y1329130D02*
X1132220Y1332800D01*
X1132680Y1332910D01*
X1132870Y1332650D01*
X1133070Y1332390D01*
X1133270Y1332130D01*
X1133470Y1331890D01*
X1133680Y1331660D01*
X1133900Y1331450D01*
X1134140Y1331250D01*
X1134380Y1331080D01*
X1134660Y1330940D01*
X1134920Y1330820D01*
X1135220Y1330730D01*
X1135520Y1330660D01*
X1135890Y1330580D01*
X1136140Y1330530D01*
X1136460Y1330470D01*
X1136780Y1330420D01*
X1137090Y1330390D01*
X1137410Y1330380D01*
X1137720Y1330390D01*
X1138020Y1330440D01*
X1138320Y1330510D01*
X1138640Y1330640D01*
X1138890Y1330790D01*
X1139150Y1330990D01*
X1139360Y1331230D01*
X1139550Y1331620D01*
X1139580Y1331800D01*
X1139570Y1332110D01*
X1139490Y1332430D01*
X1139350Y1332730D01*
X1139090Y1333070D01*
X1138940Y1333210D01*
X1138680Y1333380D01*
X1138390Y1333520D01*
X1138100Y1333620D01*
X1137670Y1333720D01*
X1137480Y1333760D01*
X1137170Y1333810D01*
X1136870Y1333860D01*
X1136570Y1333900D01*
X1136260Y1333950D01*
X1135960Y1333990D01*
X1135660Y1334040D01*
X1135350Y1334090D01*
X1135050Y1334160D01*
X1134850Y1334200D01*
X1134430Y1334320D01*
X1134130Y1334430D01*
X1133840Y1334560D01*
X1133570Y1334710D01*
X1133320Y1334880D01*
X1133100Y1335080D01*
X1132910Y1335320D01*
X1132750Y1335580D01*
X1132630Y1335860D01*
X1132530Y1336160D01*
X1132460Y1336480D01*
X1132420Y1336800D01*
X1132390Y1337280D01*
Y1337460D01*
X1132410Y1337790D01*
X1132450Y1338110D01*
X1132510Y1338420D01*
X1132600Y1338720D01*
X1132710Y1339010D01*
X1132850Y1339280D01*
X1133040Y1339540D01*
X1133220Y1339760D01*
X1133450Y1339960D01*
X1133700Y1340150D01*
X1133970Y1340320D01*
X1134250Y1340460D01*
X1134540Y1340590D01*
X1134980Y1340740D01*
X1135140Y1340790D01*
X1135450Y1340860D01*
X1135750Y1340920D01*
X1136050Y1340960D01*
X1136360Y1340990D01*
X1136660Y1341000D01*
X1136980D01*
X1137300Y1340980D01*
X1137610Y1340940D01*
X1137910Y1340880D01*
X1138210Y1340790D01*
X1138440Y1340710D01*
X1138780Y1340560D01*
X1139050Y1340410D01*
X1139320Y1340260D01*
Y1341010D01*
X1140190D01*
X1140960Y1337660D01*
X1140680Y1337380D01*
X1140440Y1337560D01*
X1140200Y1337750D01*
X1139960Y1337920D01*
X1139720Y1338100D01*
X1139460Y1338260D01*
X1139190Y1338410D01*
X1138940Y1338540D01*
X1138660Y1338660D01*
X1138370Y1338760D01*
X1138080Y1338840D01*
X1137790Y1338910D01*
X1137490Y1338970D01*
X1137310Y1338990D01*
X1136900Y1339030D01*
X1136600Y1339040D01*
X1136300Y1339020D01*
X1136050Y1338990D01*
X1135690Y1338920D01*
X1135400Y1338820D01*
X1135140Y1338670D01*
X1135010Y1338540D01*
X1134800Y1338160D01*
X1134730Y1337850D01*
X1134740Y1337530D01*
X1134820Y1337280D01*
X1135000Y1337010D01*
X1135240Y1336830D01*
X1135520Y1336690D01*
X1135830Y1336580D01*
X1136110Y1336500D01*
X1136450Y1336430D01*
X1136750Y1336380D01*
X1137050Y1336340D01*
X1137340Y1336300D01*
X1137630Y1336260D01*
X1137930Y1336210D01*
X1138210Y1336160D01*
X1138500Y1336090D01*
X1138790Y1336020D01*
X1139080Y1335940D01*
X1139350Y1335860D01*
X1139660Y1335750D01*
X1139950Y1335640D01*
X1140220Y1335520D01*
X1140490Y1335380D01*
X1140740Y1335210D01*
X1140940Y1335050D01*
X1141170Y1334800D01*
X1141340Y1334560D01*
X1141500Y1334300D01*
X1141620Y1334020D01*
X1141730Y1333730D01*
X1141810Y1333430D01*
X1141870Y1333140D01*
X1141900Y1332830D01*
X1141920Y1332530D01*
X1141910Y1332230D01*
X1141870Y1331930D01*
X1141810Y1331620D01*
X1141740Y1331340D01*
X1141640Y1331060D01*
X1141520Y1330780D01*
X1141380Y1330510D01*
X1141210Y1330250D01*
X1141030Y1330010D01*
X1140810Y1329770D01*
X1140600Y1329580D01*
X1140360Y1329400D01*
X1140100Y1329240D01*
X1139830Y1329090D01*
X1139550Y1328970D01*
X1139260Y1328870D01*
X1138960Y1328780D01*
X1138660Y1328720D01*
X1138350Y1328670D01*
X1138040Y1328640D01*
X1137700D01*
X1137440Y1328650D01*
X1137140Y1328680D01*
X1136840Y1328720D01*
X1136550Y1328780D01*
X1136260Y1328850D01*
X1135970Y1328930D01*
X1135680Y1329030D01*
X1135400Y1329130D01*
X1135110Y1329230D01*
X1134830Y1329340D01*
X1134550Y1329460D01*
X1134270Y1329580D01*
Y1329130D01*
X1133220D01*
G37*
G36*
G01X1149080Y1329760D02*
Y1329020D01*
X1145020D01*
Y1329760D01*
X1145470D01*
G03X1145860Y1330140I3J387D01*
G01Y1339180D01*
G03X1145470Y1339570I-388J2D01*
G01X1143170D01*
G03X1142890Y1339460I-9J-390D01*
G01X1141860Y1338430D01*
X1142240Y1340850D01*
X1151870D01*
X1152250Y1338430D01*
X1151210Y1339460D01*
G03X1150940Y1339570I-271J-279D01*
G01X1148630D01*
G03X1148240Y1339180I-1J-389D01*
G01Y1330140D01*
G03X1148630Y1329760I388J8D01*
G01X1149080D01*
G37*
G36*
G01X1153900Y1330130D02*
Y1339760D01*
G03X1153500Y1340160I-397J3D01*
G01X1152770D01*
Y1340830D01*
X1160150D01*
X1160390Y1340790D01*
X1160630Y1340750D01*
X1160750Y1340730D01*
X1160860Y1340700D01*
X1161010Y1340660D01*
X1161100Y1340640D01*
X1161210Y1340600D01*
X1161330Y1340550D01*
X1161440Y1340500D01*
X1161550Y1340450D01*
X1161660Y1340390D01*
X1161760Y1340330D01*
X1161870Y1340260D01*
X1161960Y1340190D01*
X1162060Y1340120D01*
X1162160Y1340040D01*
X1162250Y1339950D01*
X1162300Y1339900D01*
X1162420Y1339770D01*
X1162500Y1339680D01*
X1162570Y1339580D01*
X1162640Y1339480D01*
X1162710Y1339370D01*
X1162770Y1339260D01*
X1162820Y1339150D01*
X1162870Y1339040D01*
X1162910Y1338930D01*
X1162950Y1338810D01*
X1162980Y1338680D01*
X1163000Y1338580D01*
X1163020Y1338460D01*
X1163030Y1338340D01*
X1163040Y1338220D01*
X1163050Y1338100D01*
X1163060Y1337610D01*
Y1337500D01*
X1163070Y1337360D01*
X1163080Y1337120D01*
X1163090Y1336990D01*
Y1336870D01*
Y1336750D01*
X1163080Y1336630D01*
X1163070Y1336510D01*
X1163050Y1336450D01*
X1163040Y1336390D01*
X1163030Y1336350D01*
X1163010Y1336280D01*
X1162980Y1336220D01*
X1162960Y1336160D01*
X1162930Y1336110D01*
X1162900Y1336060D01*
X1162840Y1335950D01*
X1162770Y1335840D01*
X1162690Y1335750D01*
X1162610Y1335650D01*
X1162520Y1335560D01*
X1162430Y1335480D01*
X1162340Y1335400D01*
X1162270Y1335350D01*
X1162140Y1335270D01*
X1162040Y1335210D01*
X1161950Y1335160D01*
X1161840Y1335100D01*
X1161740Y1335060D01*
X1161530Y1334960D01*
X1161430Y1334920D01*
X1161320Y1334870D01*
X1161210Y1334820D01*
X1161100Y1334760D01*
X1160980Y1334700D01*
X1160870Y1334630D01*
X1160750Y1334560D01*
X1160620Y1334470D01*
X1160580Y1334430D01*
X1160550Y1334410D01*
X1160520Y1334390D01*
X1160500Y1334370D01*
X1160480Y1334340D01*
X1160470Y1334320D01*
X1160460Y1334290D01*
Y1334280D01*
X1160470Y1334260D01*
X1160480Y1334240D01*
X1160500Y1334220D01*
X1160520Y1334200D01*
X1160550Y1334180D01*
X1160610Y1334140D01*
X1160720Y1334080D01*
X1160800Y1334030D01*
X1160860Y1333990D01*
X1160920Y1333960D01*
X1160980Y1333920D01*
X1161030Y1333880D01*
X1161080Y1333850D01*
X1161170Y1333770D01*
X1161250Y1333690D01*
X1161330Y1333610D01*
X1161410Y1333530D01*
X1161490Y1333430D01*
X1161560Y1333360D01*
X1161630Y1333270D01*
X1161710Y1333180D01*
X1161780Y1333080D01*
X1161850Y1332980D01*
X1162000Y1332780D01*
X1162070Y1332680D01*
X1162130Y1332580D01*
X1162200Y1332470D01*
X1162230Y1332410D01*
X1162380Y1332150D01*
X1162490Y1331930D01*
X1162600Y1331720D01*
X1162720Y1331500D01*
X1162780Y1331400D01*
X1162840Y1331300D01*
X1162890Y1331240D01*
X1162980Y1331100D01*
X1163060Y1331010D01*
X1163130Y1330910D01*
X1163210Y1330820D01*
X1163300Y1330730D01*
X1163470Y1330560D01*
X1163680Y1330350D01*
X1163820Y1330220D01*
X1164000Y1330060D01*
X1164250Y1329840D01*
G03X1164510Y1329740I262J292D01*
G01X1165010D01*
Y1328990D01*
X1162260D01*
G02X1161960Y1329120I-5J399D01*
G01X1161410Y1329740D01*
X1161320Y1329840D01*
X1161230Y1329940D01*
X1161140Y1330040D01*
X1161050Y1330140D01*
X1160960Y1330240D01*
X1160880Y1330350D01*
X1160800Y1330460D01*
X1160710Y1330560D01*
X1160640Y1330660D01*
X1160560Y1330780D01*
X1160480Y1330900D01*
X1160410Y1331020D01*
X1160340Y1331130D01*
X1160280Y1331250D01*
X1160220Y1331380D01*
X1160160Y1331500D01*
X1160110Y1331620D01*
X1160060Y1331750D01*
X1160010Y1331880D01*
X1159970Y1332010D01*
X1159920Y1332130D01*
X1159870Y1332260D01*
X1159820Y1332390D01*
X1159770Y1332510D01*
X1159740Y1332580D01*
X1159640Y1332750D01*
X1159580Y1332870D01*
X1159510Y1332980D01*
X1159430Y1333100D01*
X1159360Y1333210D01*
X1159310Y1333290D01*
X1159210Y1333450D01*
X1159140Y1333560D01*
X1159060Y1333670D01*
X1158980Y1333780D01*
X1158880Y1333880D01*
X1158810Y1333940D01*
X1158670Y1334040D01*
X1158550Y1334100D01*
X1158430Y1334160D01*
X1158300Y1334220D01*
X1156260D01*
Y1335340D01*
X1158610D01*
X1158750Y1335350D01*
X1158890Y1335360D01*
X1158990Y1335370D01*
X1159160Y1335390D01*
X1159300Y1335420D01*
X1159430Y1335450D01*
X1159500Y1335470D01*
X1159690Y1335550D01*
X1159820Y1335620D01*
X1159940Y1335690D01*
X1160050Y1335780D01*
X1160160Y1335870D01*
X1160260Y1335970D01*
X1160350Y1336080D01*
X1160440Y1336200D01*
X1160510Y1336320D01*
X1160560Y1336430D01*
X1160610Y1336570D01*
X1160650Y1336700D01*
X1160670Y1336840D01*
X1160690Y1336970D01*
X1160700Y1337110D01*
Y1337250D01*
Y1337390D01*
Y1337560D01*
X1160690Y1337680D01*
X1160680Y1337820D01*
X1160670Y1337960D01*
X1160650Y1338100D01*
X1160630Y1338230D01*
X1160600Y1338370D01*
X1160560Y1338500D01*
X1160520Y1338630D01*
X1160460Y1338750D01*
X1160420Y1338820D01*
X1160310Y1338990D01*
X1160220Y1339100D01*
X1160130Y1339200D01*
X1160020Y1339290D01*
X1159910Y1339380D01*
X1159790Y1339450D01*
X1159710Y1339490D01*
X1159530Y1339550D01*
X1159400Y1339580D01*
X1159260Y1339600D01*
X1159130Y1339620D01*
X1158990Y1339640D01*
X1156220D01*
Y1330130D01*
G03X1156620Y1329740I394J4D01*
G01X1157520D01*
Y1328990D01*
X1152770D01*
Y1329740D01*
X1153500D01*
G03X1153900Y1330130I4J396D01*
G37*
G36*
G01X1117880Y1330710D02*
G03X1118670Y1329920I793J3D01*
G01X1119100D01*
Y1329020D01*
X1113880Y1329000D01*
Y1329920D01*
X1114300D01*
G03X1115100Y1330710I6J794D01*
G01Y1342990D01*
G03X1114300Y1343780I-793J-2D01*
G01X1113880D01*
Y1344460D01*
X1119020D01*
Y1343780D01*
X1118670D01*
G03X1117880Y1342990I1J-791D01*
G01Y1330710D01*
G37*
G36*
G01X1119790Y1329920D02*
X1120540D01*
G03X1120940Y1330320I2J398D01*
G01Y1339620D01*
G03X1120540Y1340010I-397J-7D01*
G01X1119730D01*
Y1340890D01*
X1123380D01*
G02X1123680Y1340750I-2J-395D01*
G01X1129360Y1334180D01*
Y1339540D01*
G03X1128960Y1339930I-396J-6D01*
G01X1127990D01*
Y1340890D01*
X1131980D01*
Y1339930D01*
X1131140D01*
G03X1130750Y1339540I4J-394D01*
G01Y1329020D01*
X1130130D01*
G02X1129830Y1329150I-7J395D01*
G01X1122970Y1337100D01*
Y1330320D01*
G03X1123360Y1329920I396J-4D01*
G01X1123960D01*
Y1329020D01*
X1119790D01*
Y1329920D01*
G37*
G36*
G01X1133220Y1329130D02*
X1132220Y1332800D01*
X1132680Y1332910D01*
X1132870Y1332650D01*
X1133070Y1332390D01*
X1133270Y1332130D01*
X1133470Y1331890D01*
X1133680Y1331660D01*
X1133900Y1331450D01*
X1134140Y1331250D01*
X1134380Y1331080D01*
X1134660Y1330940D01*
X1134920Y1330820D01*
X1135220Y1330730D01*
X1135520Y1330660D01*
X1135890Y1330580D01*
X1136140Y1330530D01*
X1136460Y1330470D01*
X1136780Y1330420D01*
X1137090Y1330390D01*
X1137410Y1330380D01*
X1137720Y1330390D01*
X1138020Y1330440D01*
X1138320Y1330510D01*
X1138640Y1330640D01*
X1138890Y1330790D01*
X1139150Y1330990D01*
X1139360Y1331230D01*
X1139550Y1331620D01*
X1139580Y1331800D01*
X1139570Y1332110D01*
X1139490Y1332430D01*
X1139350Y1332730D01*
X1139090Y1333070D01*
X1138940Y1333210D01*
X1138680Y1333380D01*
X1138390Y1333520D01*
X1138100Y1333620D01*
X1137670Y1333720D01*
X1137480Y1333760D01*
X1137170Y1333810D01*
X1136870Y1333860D01*
X1136570Y1333900D01*
X1136260Y1333950D01*
X1135960Y1333990D01*
X1135660Y1334040D01*
X1135350Y1334090D01*
X1135050Y1334160D01*
X1134850Y1334200D01*
X1134430Y1334320D01*
X1134130Y1334430D01*
X1133840Y1334560D01*
X1133570Y1334710D01*
X1133320Y1334880D01*
X1133100Y1335080D01*
X1132910Y1335320D01*
X1132750Y1335580D01*
X1132630Y1335860D01*
X1132530Y1336160D01*
X1132460Y1336480D01*
X1132420Y1336800D01*
X1132390Y1337280D01*
Y1337460D01*
X1132410Y1337790D01*
X1132450Y1338110D01*
X1132510Y1338420D01*
X1132600Y1338720D01*
X1132710Y1339010D01*
X1132850Y1339280D01*
X1133040Y1339540D01*
X1133220Y1339760D01*
X1133450Y1339960D01*
X1133700Y1340150D01*
X1133970Y1340320D01*
X1134250Y1340460D01*
X1134540Y1340590D01*
X1134980Y1340740D01*
X1135140Y1340790D01*
X1135450Y1340860D01*
X1135750Y1340920D01*
X1136050Y1340960D01*
X1136360Y1340990D01*
X1136660Y1341000D01*
X1136980D01*
X1137300Y1340980D01*
X1137610Y1340940D01*
X1137910Y1340880D01*
X1138210Y1340790D01*
X1138440Y1340710D01*
X1138780Y1340560D01*
X1139050Y1340410D01*
X1139320Y1340260D01*
Y1341010D01*
X1140190D01*
X1140960Y1337660D01*
X1140680Y1337380D01*
X1140440Y1337560D01*
X1140200Y1337750D01*
X1139960Y1337920D01*
X1139720Y1338100D01*
X1139460Y1338260D01*
X1139190Y1338410D01*
X1138940Y1338540D01*
X1138660Y1338660D01*
X1138370Y1338760D01*
X1138080Y1338840D01*
X1137790Y1338910D01*
X1137490Y1338970D01*
X1137310Y1338990D01*
X1136900Y1339030D01*
X1136600Y1339040D01*
X1136300Y1339020D01*
X1136050Y1338990D01*
X1135690Y1338920D01*
X1135400Y1338820D01*
X1135140Y1338670D01*
X1135010Y1338540D01*
X1134800Y1338160D01*
X1134730Y1337850D01*
X1134740Y1337530D01*
X1134820Y1337280D01*
X1135000Y1337010D01*
X1135240Y1336830D01*
X1135520Y1336690D01*
X1135830Y1336580D01*
X1136110Y1336500D01*
X1136450Y1336430D01*
X1136750Y1336380D01*
X1137050Y1336340D01*
X1137340Y1336300D01*
X1137630Y1336260D01*
X1137930Y1336210D01*
X1138210Y1336160D01*
X1138500Y1336090D01*
X1138790Y1336020D01*
X1139080Y1335940D01*
X1139350Y1335860D01*
X1139660Y1335750D01*
X1139950Y1335640D01*
X1140220Y1335520D01*
X1140490Y1335380D01*
X1140740Y1335210D01*
X1140940Y1335050D01*
X1141170Y1334800D01*
X1141340Y1334560D01*
X1141500Y1334300D01*
X1141620Y1334020D01*
X1141730Y1333730D01*
X1141810Y1333430D01*
X1141870Y1333140D01*
X1141900Y1332830D01*
X1141920Y1332530D01*
X1141910Y1332230D01*
X1141870Y1331930D01*
X1141810Y1331620D01*
X1141740Y1331340D01*
X1141640Y1331060D01*
X1141520Y1330780D01*
X1141380Y1330510D01*
X1141210Y1330250D01*
X1141030Y1330010D01*
X1140810Y1329770D01*
X1140600Y1329580D01*
X1140360Y1329400D01*
X1140100Y1329240D01*
X1139830Y1329090D01*
X1139550Y1328970D01*
X1139260Y1328870D01*
X1138960Y1328780D01*
X1138660Y1328720D01*
X1138350Y1328670D01*
X1138040Y1328640D01*
X1137700D01*
X1137440Y1328650D01*
X1137140Y1328680D01*
X1136840Y1328720D01*
X1136550Y1328780D01*
X1136260Y1328850D01*
X1135970Y1328930D01*
X1135680Y1329030D01*
X1135400Y1329130D01*
X1135110Y1329230D01*
X1134830Y1329340D01*
X1134550Y1329460D01*
X1134270Y1329580D01*
Y1329130D01*
X1133220D01*
G37*
G36*
G01X1132460Y1357070D02*
X1135540Y1352720D01*
G02Y1352260I-324J-230D01*
G01X1132490Y1347860D01*
G02X1132160Y1347690I-326J227D01*
G01X1131390D01*
Y1346620D01*
X1135010D01*
Y1347690D01*
X1134330D01*
X1136630Y1351180D01*
X1139090Y1347690D01*
X1138360D01*
Y1346620D01*
X1142470D01*
Y1347690D01*
X1142350D01*
G02X1142030Y1347860I5J395D01*
G01X1138940Y1352270D01*
G02Y1352710I329J220D01*
G01X1141710Y1357050D01*
G02X1142040Y1357240I339J-207D01*
G01X1142940D01*
Y1358530D01*
X1138670D01*
Y1357600D01*
Y1357240D01*
X1139820D01*
X1137760Y1354100D01*
X1135690Y1357240D01*
X1136950D01*
Y1358530D01*
X1131360D01*
Y1357240D01*
X1132140D01*
G02X1132460Y1357070I-6J-397D01*
G37*
G36*
G01X1150130Y1346620D02*
Y1347690D01*
X1150470D01*
G03X1150850Y1348220I5J397D01*
G01X1148050Y1356040D01*
X1146160Y1351170D01*
X1149730D01*
X1150140Y1350030D01*
X1145720Y1350020D01*
X1145020Y1348230D01*
G03X1145390Y1347690I370J-143D01*
G01X1145460D01*
Y1346620D01*
X1142720D01*
Y1347690D01*
X1142780D01*
G03X1143150Y1347940I1J398D01*
G01X1147240Y1358530D01*
X1149920D01*
X1153800Y1347950D01*
G03X1154170Y1347690I371J135D01*
G01X1154600D01*
Y1346620D01*
X1150130D01*
G37*
G36*
G01X1128950Y1354140D02*
X1129230D01*
Y1351180D01*
X1128950D01*
X1128550Y1351690D01*
G03X1128240Y1351840I-310J-245D01*
G01X1124190D01*
Y1348010D01*
X1129290D01*
G03X1129580Y1348130I5J398D01*
G01X1130810Y1349420D01*
X1131150D01*
X1130280Y1346890D01*
G02X1129900Y1346620I-377J128D01*
G01X1120840D01*
Y1347050D01*
X1121950Y1347630D01*
G03X1122170Y1347980I-178J356D01*
G01Y1356820D01*
G03X1121970Y1357160I-396J-4D01*
G01X1120840Y1357830D01*
Y1358510D01*
X1129430D01*
G02X1129790Y1358260I-7J-394D01*
G01X1130870Y1355670D01*
X1130280Y1355420D01*
X1129230Y1356570D01*
G03X1128940Y1356700I-294J-267D01*
G01X1124190D01*
Y1353650D01*
X1128270D01*
G03X1128540Y1353760I-3J394D01*
G01X1128950Y1354140D01*
G37*
G36*
G01X1155420Y1346750D02*
X1154420Y1350420D01*
X1154880Y1350530D01*
X1155080Y1350270D01*
X1155270Y1350010D01*
X1155470Y1349760D01*
X1155680Y1349510D01*
X1155890Y1349280D01*
X1156110Y1349070D01*
X1156340Y1348880D01*
X1156590Y1348710D01*
X1156860Y1348560D01*
X1157130Y1348450D01*
X1157420Y1348360D01*
X1157720Y1348280D01*
X1158090Y1348200D01*
X1158350Y1348150D01*
X1158660Y1348090D01*
X1158980Y1348050D01*
X1159300Y1348020D01*
X1159610Y1348000D01*
X1159920Y1348020D01*
X1160230Y1348060D01*
X1160530Y1348140D01*
X1160840Y1348270D01*
X1161100Y1348410D01*
X1161350Y1348620D01*
X1161560Y1348850D01*
X1161750Y1349240D01*
X1161780Y1349420D01*
Y1349740D01*
X1161700Y1350050D01*
X1161560Y1350350D01*
X1161300Y1350690D01*
X1161140Y1350840D01*
X1160880Y1351010D01*
X1160600Y1351140D01*
X1160300Y1351240D01*
X1159870Y1351340D01*
X1159680Y1351380D01*
X1159380Y1351430D01*
X1159070Y1351480D01*
X1158770Y1351530D01*
X1158470Y1351570D01*
X1158160Y1351610D01*
X1157860Y1351660D01*
X1157560Y1351720D01*
X1157250Y1351780D01*
X1157060Y1351830D01*
X1156640Y1351940D01*
X1156330Y1352050D01*
X1156040Y1352180D01*
X1155770Y1352330D01*
X1155520Y1352500D01*
X1155310Y1352700D01*
X1155110Y1352940D01*
X1154960Y1353200D01*
X1154830Y1353490D01*
X1154740Y1353790D01*
X1154660Y1354100D01*
X1154620Y1354420D01*
X1154590Y1354900D01*
Y1355080D01*
X1154610Y1355410D01*
X1154650Y1355730D01*
X1154720Y1356040D01*
X1154800Y1356340D01*
X1154920Y1356630D01*
X1155060Y1356900D01*
X1155240Y1357170D01*
X1155430Y1357380D01*
X1155650Y1357590D01*
X1155900Y1357770D01*
X1156170Y1357940D01*
X1156450Y1358080D01*
X1156740Y1358210D01*
X1157180Y1358360D01*
X1157350Y1358410D01*
X1157650Y1358490D01*
X1157950Y1358540D01*
X1158260Y1358590D01*
X1158570Y1358610D01*
X1158870Y1358620D01*
X1159190D01*
X1159500Y1358600D01*
X1159810Y1358560D01*
X1160120Y1358500D01*
X1160410Y1358420D01*
X1160650Y1358330D01*
X1160980Y1358180D01*
X1161260Y1358030D01*
X1161520Y1357880D01*
Y1358640D01*
X1162390D01*
X1163170Y1355280D01*
X1162880Y1355000D01*
X1162650Y1355180D01*
X1162410Y1355370D01*
X1162170Y1355550D01*
X1161920Y1355720D01*
X1161670Y1355880D01*
X1161390Y1356040D01*
X1161140Y1356160D01*
X1160860Y1356280D01*
X1160580Y1356380D01*
X1160290Y1356460D01*
X1159990Y1356540D01*
X1159700Y1356590D01*
X1159520Y1356620D01*
X1159110Y1356650D01*
X1158810Y1356660D01*
X1158510Y1356650D01*
X1158250Y1356620D01*
X1157900Y1356550D01*
X1157600Y1356450D01*
X1157350Y1356290D01*
X1157220Y1356160D01*
X1157010Y1355780D01*
X1156940Y1355470D01*
X1156950Y1355150D01*
X1157020Y1354900D01*
X1157210Y1354640D01*
X1157440Y1354450D01*
X1157720Y1354310D01*
X1158030Y1354200D01*
X1158320Y1354120D01*
X1158650Y1354050D01*
X1158960Y1354000D01*
X1159250Y1353960D01*
X1159540Y1353920D01*
X1159830Y1353880D01*
X1160130Y1353830D01*
X1160410Y1353780D01*
X1160700Y1353720D01*
X1160990Y1353640D01*
X1161280Y1353560D01*
X1161560Y1353480D01*
X1161860Y1353370D01*
X1162150Y1353270D01*
X1162430Y1353140D01*
X1162690Y1353000D01*
X1162940Y1352840D01*
X1163140Y1352670D01*
X1163370Y1352430D01*
X1163550Y1352180D01*
X1163700Y1351920D01*
X1163830Y1351640D01*
X1163930Y1351350D01*
X1164020Y1351050D01*
X1164070Y1350760D01*
X1164110Y1350460D01*
X1164120Y1350160D01*
X1164110Y1349860D01*
X1164080Y1349560D01*
X1164020Y1349240D01*
X1163950Y1348970D01*
X1163840Y1348680D01*
X1163720Y1348400D01*
X1163580Y1348130D01*
X1163420Y1347870D01*
X1163240Y1347630D01*
X1163010Y1347390D01*
X1162810Y1347210D01*
X1162570Y1347020D01*
X1162310Y1346860D01*
X1162040Y1346720D01*
X1161760Y1346590D01*
X1161460Y1346490D01*
X1161170Y1346400D01*
X1160860Y1346340D01*
X1160560Y1346290D01*
X1160250Y1346270D01*
X1159900Y1346260D01*
X1159640Y1346270D01*
X1159340Y1346300D01*
X1159040Y1346340D01*
X1158750Y1346400D01*
X1158460Y1346470D01*
X1158170Y1346560D01*
X1157890Y1346650D01*
X1157600Y1346750D01*
X1157320Y1346860D01*
X1157040Y1346970D01*
X1156750Y1347080D01*
X1156470Y1347200D01*
Y1346750D01*
X1155420D01*
G37*
G36*
G01X1132460Y1357070D02*
X1135540Y1352720D01*
G02Y1352260I-324J-230D01*
G01X1132490Y1347860D01*
G02X1132160Y1347690I-326J227D01*
G01X1131390D01*
Y1346620D01*
X1135010D01*
Y1347690D01*
X1134330D01*
X1136630Y1351180D01*
X1139090Y1347690D01*
X1138360D01*
Y1346620D01*
X1142470D01*
Y1347690D01*
X1142350D01*
G02X1142030Y1347860I5J395D01*
G01X1138940Y1352270D01*
G02Y1352710I329J220D01*
G01X1141710Y1357050D01*
G02X1142040Y1357240I339J-207D01*
G01X1142940D01*
Y1358530D01*
X1138670D01*
Y1357600D01*
Y1357240D01*
X1139820D01*
X1137760Y1354100D01*
X1135690Y1357240D01*
X1136950D01*
Y1358530D01*
X1131360D01*
Y1357240D01*
X1132140D01*
G02X1132460Y1357070I-6J-397D01*
G37*
G36*
G01X1150130Y1346620D02*
Y1347690D01*
X1150470D01*
G03X1150850Y1348220I5J397D01*
G01X1148050Y1356040D01*
X1146160Y1351170D01*
X1149730D01*
X1150140Y1350030D01*
X1145720Y1350020D01*
X1145020Y1348230D01*
G03X1145390Y1347690I370J-143D01*
G01X1145460D01*
Y1346620D01*
X1142720D01*
Y1347690D01*
X1142780D01*
G03X1143150Y1347940I1J398D01*
G01X1147240Y1358530D01*
X1149920D01*
X1153800Y1347950D01*
G03X1154170Y1347690I371J135D01*
G01X1154600D01*
Y1346620D01*
X1150130D01*
G37*
G36*
G01X1128950Y1354140D02*
X1129230D01*
Y1351180D01*
X1128950D01*
X1128550Y1351690D01*
G03X1128240Y1351840I-310J-245D01*
G01X1124190D01*
Y1348010D01*
X1129290D01*
G03X1129580Y1348130I5J398D01*
G01X1130810Y1349420D01*
X1131150D01*
X1130280Y1346890D01*
G02X1129900Y1346620I-377J128D01*
G01X1120840D01*
Y1347050D01*
X1121950Y1347630D01*
G03X1122170Y1347980I-178J356D01*
G01Y1356820D01*
G03X1121970Y1357160I-396J-4D01*
G01X1120840Y1357830D01*
Y1358510D01*
X1129430D01*
G02X1129790Y1358260I-7J-394D01*
G01X1130870Y1355670D01*
X1130280Y1355420D01*
X1129230Y1356570D01*
G03X1128940Y1356700I-294J-267D01*
G01X1124190D01*
Y1353650D01*
X1128270D01*
G03X1128540Y1353760I-3J394D01*
G01X1128950Y1354140D01*
G37*
G36*
G01X1155420Y1346750D02*
X1154420Y1350420D01*
X1154880Y1350530D01*
X1155080Y1350270D01*
X1155270Y1350010D01*
X1155470Y1349760D01*
X1155680Y1349510D01*
X1155890Y1349280D01*
X1156110Y1349070D01*
X1156340Y1348880D01*
X1156590Y1348710D01*
X1156860Y1348560D01*
X1157130Y1348450D01*
X1157420Y1348360D01*
X1157720Y1348280D01*
X1158090Y1348200D01*
X1158350Y1348150D01*
X1158660Y1348090D01*
X1158980Y1348050D01*
X1159300Y1348020D01*
X1159610Y1348000D01*
X1159920Y1348020D01*
X1160230Y1348060D01*
X1160530Y1348140D01*
X1160840Y1348270D01*
X1161100Y1348410D01*
X1161350Y1348620D01*
X1161560Y1348850D01*
X1161750Y1349240D01*
X1161780Y1349420D01*
Y1349740D01*
X1161700Y1350050D01*
X1161560Y1350350D01*
X1161300Y1350690D01*
X1161140Y1350840D01*
X1160880Y1351010D01*
X1160600Y1351140D01*
X1160300Y1351240D01*
X1159870Y1351340D01*
X1159680Y1351380D01*
X1159380Y1351430D01*
X1159070Y1351480D01*
X1158770Y1351530D01*
X1158470Y1351570D01*
X1158160Y1351610D01*
X1157860Y1351660D01*
X1157560Y1351720D01*
X1157250Y1351780D01*
X1157060Y1351830D01*
X1156640Y1351940D01*
X1156330Y1352050D01*
X1156040Y1352180D01*
X1155770Y1352330D01*
X1155520Y1352500D01*
X1155310Y1352700D01*
X1155110Y1352940D01*
X1154960Y1353200D01*
X1154830Y1353490D01*
X1154740Y1353790D01*
X1154660Y1354100D01*
X1154620Y1354420D01*
X1154590Y1354900D01*
Y1355080D01*
X1154610Y1355410D01*
X1154650Y1355730D01*
X1154720Y1356040D01*
X1154800Y1356340D01*
X1154920Y1356630D01*
X1155060Y1356900D01*
X1155240Y1357170D01*
X1155430Y1357380D01*
X1155650Y1357590D01*
X1155900Y1357770D01*
X1156170Y1357940D01*
X1156450Y1358080D01*
X1156740Y1358210D01*
X1157180Y1358360D01*
X1157350Y1358410D01*
X1157650Y1358490D01*
X1157950Y1358540D01*
X1158260Y1358590D01*
X1158570Y1358610D01*
X1158870Y1358620D01*
X1159190D01*
X1159500Y1358600D01*
X1159810Y1358560D01*
X1160120Y1358500D01*
X1160410Y1358420D01*
X1160650Y1358330D01*
X1160980Y1358180D01*
X1161260Y1358030D01*
X1161520Y1357880D01*
Y1358640D01*
X1162390D01*
X1163170Y1355280D01*
X1162880Y1355000D01*
X1162650Y1355180D01*
X1162410Y1355370D01*
X1162170Y1355550D01*
X1161920Y1355720D01*
X1161670Y1355880D01*
X1161390Y1356040D01*
X1161140Y1356160D01*
X1160860Y1356280D01*
X1160580Y1356380D01*
X1160290Y1356460D01*
X1159990Y1356540D01*
X1159700Y1356590D01*
X1159520Y1356620D01*
X1159110Y1356650D01*
X1158810Y1356660D01*
X1158510Y1356650D01*
X1158250Y1356620D01*
X1157900Y1356550D01*
X1157600Y1356450D01*
X1157350Y1356290D01*
X1157220Y1356160D01*
X1157010Y1355780D01*
X1156940Y1355470D01*
X1156950Y1355150D01*
X1157020Y1354900D01*
X1157210Y1354640D01*
X1157440Y1354450D01*
X1157720Y1354310D01*
X1158030Y1354200D01*
X1158320Y1354120D01*
X1158650Y1354050D01*
X1158960Y1354000D01*
X1159250Y1353960D01*
X1159540Y1353920D01*
X1159830Y1353880D01*
X1160130Y1353830D01*
X1160410Y1353780D01*
X1160700Y1353720D01*
X1160990Y1353640D01*
X1161280Y1353560D01*
X1161560Y1353480D01*
X1161860Y1353370D01*
X1162150Y1353270D01*
X1162430Y1353140D01*
X1162690Y1353000D01*
X1162940Y1352840D01*
X1163140Y1352670D01*
X1163370Y1352430D01*
X1163550Y1352180D01*
X1163700Y1351920D01*
X1163830Y1351640D01*
X1163930Y1351350D01*
X1164020Y1351050D01*
X1164070Y1350760D01*
X1164110Y1350460D01*
X1164120Y1350160D01*
X1164110Y1349860D01*
X1164080Y1349560D01*
X1164020Y1349240D01*
X1163950Y1348970D01*
X1163840Y1348680D01*
X1163720Y1348400D01*
X1163580Y1348130D01*
X1163420Y1347870D01*
X1163240Y1347630D01*
X1163010Y1347390D01*
X1162810Y1347210D01*
X1162570Y1347020D01*
X1162310Y1346860D01*
X1162040Y1346720D01*
X1161760Y1346590D01*
X1161460Y1346490D01*
X1161170Y1346400D01*
X1160860Y1346340D01*
X1160560Y1346290D01*
X1160250Y1346270D01*
X1159900Y1346260D01*
X1159640Y1346270D01*
X1159340Y1346300D01*
X1159040Y1346340D01*
X1158750Y1346400D01*
X1158460Y1346470D01*
X1158170Y1346560D01*
X1157890Y1346650D01*
X1157600Y1346750D01*
X1157320Y1346860D01*
X1157040Y1346970D01*
X1156750Y1347080D01*
X1156470Y1347200D01*
Y1346750D01*
X1155420D01*
G37*
G36*
G01X1167920Y1329020D02*
X1173350D01*
G03X1175370Y1331220I-208J2218D01*
G01Y1339760D01*
G02X1175760Y1340160I395J5D01*
G01X1176350D01*
Y1340890D01*
X1172500D01*
Y1340160D01*
X1173320D01*
G02X1173720Y1339760I3J-397D01*
G01Y1331850D01*
G02X1171830Y1330390I-1797J372D01*
G01X1169660D01*
G02X1167950Y1331850I49J1789D01*
G01Y1339760D01*
G02X1168340Y1340160I395J5D01*
G01X1169200D01*
Y1340890D01*
X1163980D01*
Y1340160D01*
X1165000D01*
G02X1165400Y1339760I2J-398D01*
G01Y1332140D01*
G03X1167920Y1329020I3221J24D01*
G37*
G36*
G01X1176950Y1329000D02*
X1180690D01*
Y1329920D01*
X1179880D01*
G02X1179480Y1330320I-3J397D01*
G01Y1337880D01*
X1183860Y1329000D01*
X1188070Y1337740D01*
Y1330320D01*
G02X1187670Y1329920I-398J-2D01*
G01X1187210D01*
Y1329020D01*
X1191740D01*
Y1329920D01*
X1191570D01*
G02X1191170Y1330320I-4J396D01*
G01Y1339810D01*
G02X1191570Y1340210I396J4D01*
G01X1191970D01*
Y1340890D01*
X1188070D01*
G03X1187710Y1340650I5J-397D01*
G01X1184660Y1333610D01*
X1181410Y1340660D01*
G03X1181050Y1340890I-360J-166D01*
G01X1176950D01*
Y1340160D01*
X1177870D01*
G02X1178270Y1339760I4J-396D01*
G01Y1330320D01*
G02X1177870Y1329920I-396J-4D01*
G01X1176950D01*
Y1329000D01*
G37*
G36*
G01X1200900Y1336520D02*
X1201190D01*
Y1333560D01*
X1200900D01*
X1200500Y1334070D01*
G03X1200190Y1334220I-310J-246D01*
G01X1196140D01*
Y1330390D01*
X1201240D01*
G03X1201530Y1330510I6J396D01*
G01X1202760Y1331800D01*
X1203110D01*
X1202230Y1329270D01*
G02X1201860Y1329000I-375J126D01*
G01X1192790D01*
Y1329430D01*
X1193910Y1330010D01*
G03X1194120Y1330360I-187J350D01*
G01Y1339200D01*
G03X1193920Y1339540I-395J-4D01*
G01X1192790Y1340210D01*
Y1340890D01*
X1201380D01*
G02X1201750Y1340640I1J-398D01*
G01X1202820Y1338040D01*
X1202230Y1337800D01*
X1201180Y1338950D01*
G03X1200890Y1339080I-294J-268D01*
G01X1196140D01*
Y1336030D01*
X1200220D01*
G03X1200500Y1336140I7J394D01*
G01X1200900Y1336520D01*
G37*
G36*
G01X1167920Y1329020D02*
X1173350D01*
G03X1175370Y1331220I-208J2218D01*
G01Y1339760D01*
G02X1175760Y1340160I395J5D01*
G01X1176350D01*
Y1340890D01*
X1172500D01*
Y1340160D01*
X1173320D01*
G02X1173720Y1339760I3J-397D01*
G01Y1331850D01*
G02X1171830Y1330390I-1797J372D01*
G01X1169660D01*
G02X1167950Y1331850I49J1789D01*
G01Y1339760D01*
G02X1168340Y1340160I395J5D01*
G01X1169200D01*
Y1340890D01*
X1163980D01*
Y1340160D01*
X1165000D01*
G02X1165400Y1339760I2J-398D01*
G01Y1332140D01*
G03X1167920Y1329020I3221J24D01*
G37*
G36*
G01X1176950Y1329000D02*
X1180690D01*
Y1329920D01*
X1179880D01*
G02X1179480Y1330320I-3J397D01*
G01Y1337880D01*
X1183860Y1329000D01*
X1188070Y1337740D01*
Y1330320D01*
G02X1187670Y1329920I-398J-2D01*
G01X1187210D01*
Y1329020D01*
X1191740D01*
Y1329920D01*
X1191570D01*
G02X1191170Y1330320I-4J396D01*
G01Y1339810D01*
G02X1191570Y1340210I396J4D01*
G01X1191970D01*
Y1340890D01*
X1188070D01*
G03X1187710Y1340650I5J-397D01*
G01X1184660Y1333610D01*
X1181410Y1340660D01*
G03X1181050Y1340890I-360J-166D01*
G01X1176950D01*
Y1340160D01*
X1177870D01*
G02X1178270Y1339760I4J-396D01*
G01Y1330320D01*
G02X1177870Y1329920I-396J-4D01*
G01X1176950D01*
Y1329000D01*
G37*
G36*
G01X1200900Y1336520D02*
X1201190D01*
Y1333560D01*
X1200900D01*
X1200500Y1334070D01*
G03X1200190Y1334220I-310J-246D01*
G01X1196140D01*
Y1330390D01*
X1201240D01*
G03X1201530Y1330510I6J396D01*
G01X1202760Y1331800D01*
X1203110D01*
X1202230Y1329270D01*
G02X1201860Y1329000I-375J126D01*
G01X1192790D01*
Y1329430D01*
X1193910Y1330010D01*
G03X1194120Y1330360I-187J350D01*
G01Y1339200D01*
G03X1193920Y1339540I-395J-4D01*
G01X1192790Y1340210D01*
Y1340890D01*
X1201380D01*
G02X1201750Y1340640I1J-398D01*
G01X1202820Y1338040D01*
X1202230Y1337800D01*
X1201180Y1338950D01*
G03X1200890Y1339080I-294J-268D01*
G01X1196140D01*
Y1336030D01*
X1200220D01*
G03X1200500Y1336140I7J394D01*
G01X1200900Y1336520D01*
G37*
G36*
G01X1222970Y1329760D02*
Y1329020D01*
X1218910D01*
Y1329760D01*
X1219360D01*
G03X1219750Y1330140I2J388D01*
G01Y1339180D01*
G03X1219360Y1339570I-389J1D01*
G01X1217050D01*
G03X1216780Y1339460I1J-389D01*
G01X1215740Y1338430D01*
X1216120Y1340850D01*
X1225760D01*
X1226140Y1338430D01*
X1225100Y1339460D01*
G03X1224820Y1339570I-271J-280D01*
G01X1222520D01*
G03X1222130Y1339180I-2J-388D01*
G01Y1330140D01*
G03X1222520Y1329760I387J7D01*
G01X1222970D01*
G37*
G36*
G01X1203270Y1329920D02*
X1204020D01*
G03X1204420Y1330320I4J396D01*
G01Y1339620D01*
G03X1204020Y1340010I-395J-5D01*
G01X1203220D01*
Y1340890D01*
X1206870D01*
G02X1207170Y1340750I-2J-396D01*
G01X1212840Y1334180D01*
Y1339540D01*
G03X1212450Y1339930I-394J-4D01*
G01X1211480D01*
Y1340890D01*
X1215470D01*
Y1339930D01*
X1214630D01*
G03X1214230Y1339540I-4J-396D01*
G01Y1329020D01*
X1213620D01*
G02X1213320Y1329150I-8J394D01*
G01X1206450Y1337100D01*
Y1330320D01*
G03X1206850Y1329920I397J-3D01*
G01X1207440D01*
Y1329020D01*
X1203270D01*
Y1329920D01*
G37*
G36*
G01X1227650Y1329200D02*
X1226660Y1332860D01*
X1227120Y1332980D01*
X1227310Y1332710D01*
X1227500Y1332450D01*
X1227700Y1332200D01*
X1227910Y1331960D01*
X1228120Y1331730D01*
X1228340Y1331520D01*
X1228570Y1331320D01*
X1228820Y1331150D01*
X1229090Y1331000D01*
X1229360Y1330890D01*
X1229650Y1330800D01*
X1229960Y1330720D01*
X1230320Y1330650D01*
X1230580Y1330600D01*
X1230900Y1330540D01*
X1231210Y1330490D01*
X1231530Y1330460D01*
X1231840Y1330450D01*
X1232150Y1330460D01*
X1232460Y1330500D01*
X1232760Y1330580D01*
X1233080Y1330710D01*
X1233330Y1330860D01*
X1233580Y1331060D01*
X1233800Y1331300D01*
X1233980Y1331680D01*
X1234020Y1331870D01*
X1234010Y1332180D01*
X1233930Y1332500D01*
X1233790Y1332800D01*
X1233530Y1333140D01*
X1233370Y1333280D01*
X1233110Y1333450D01*
X1232830Y1333580D01*
X1232530Y1333680D01*
X1232100Y1333790D01*
X1231920Y1333820D01*
X1231610Y1333880D01*
X1231310Y1333930D01*
X1231000Y1333970D01*
X1230700Y1334010D01*
X1230400Y1334060D01*
X1230090Y1334110D01*
X1229790Y1334160D01*
X1229480Y1334220D01*
X1229290Y1334270D01*
X1228870Y1334390D01*
X1228570Y1334500D01*
X1228280Y1334620D01*
X1228000Y1334770D01*
X1227750Y1334950D01*
X1227540Y1335150D01*
X1227340Y1335390D01*
X1227190Y1335650D01*
X1227060Y1335930D01*
X1226970Y1336230D01*
X1226900Y1336550D01*
X1226850Y1336870D01*
X1226830Y1337350D01*
Y1337530D01*
X1226840Y1337850D01*
X1226880Y1338170D01*
X1226950Y1338490D01*
X1227040Y1338790D01*
X1227150Y1339070D01*
X1227290Y1339340D01*
X1227470Y1339610D01*
X1227660Y1339820D01*
X1227890Y1340030D01*
X1228140Y1340220D01*
X1228400Y1340380D01*
X1228680Y1340530D01*
X1228980Y1340660D01*
X1229420Y1340810D01*
X1229580Y1340860D01*
X1229880Y1340930D01*
X1230190Y1340990D01*
X1230490Y1341030D01*
X1230800Y1341060D01*
X1231100Y1341070D01*
X1231420Y1341060D01*
X1231730Y1341040D01*
X1232040Y1341010D01*
X1232350Y1340940D01*
X1232650Y1340860D01*
X1232880Y1340780D01*
X1233210Y1340630D01*
X1233490Y1340480D01*
X1233760Y1340320D01*
Y1341080D01*
X1234630D01*
X1235400Y1337730D01*
X1235120Y1337440D01*
X1234880Y1337630D01*
X1234640Y1337810D01*
X1234400Y1337990D01*
X1234150Y1338160D01*
X1233900Y1338320D01*
X1233630Y1338480D01*
X1233370Y1338600D01*
X1233090Y1338720D01*
X1232810Y1338820D01*
X1232520Y1338910D01*
X1232230Y1338980D01*
X1231930Y1339040D01*
X1231750Y1339060D01*
X1231340Y1339100D01*
X1231040D01*
X1230740Y1339090D01*
X1230480Y1339060D01*
X1230130Y1338990D01*
X1229840Y1338890D01*
X1229580Y1338740D01*
X1229450Y1338610D01*
X1229240Y1338230D01*
X1229170Y1337910D01*
X1229180Y1337600D01*
X1229260Y1337350D01*
X1229440Y1337080D01*
X1229680Y1336900D01*
X1229960Y1336750D01*
X1230260Y1336650D01*
X1230550Y1336570D01*
X1230890Y1336500D01*
X1231190Y1336450D01*
X1231480Y1336400D01*
X1231780Y1336370D01*
X1232060Y1336330D01*
X1232360Y1336280D01*
X1232640Y1336230D01*
X1232930Y1336160D01*
X1233220Y1336090D01*
X1233510Y1336010D01*
X1233790Y1335920D01*
X1234100Y1335820D01*
X1234380Y1335710D01*
X1234660Y1335590D01*
X1234930Y1335440D01*
X1235170Y1335280D01*
X1235380Y1335110D01*
X1235600Y1334870D01*
X1235780Y1334630D01*
X1235930Y1334370D01*
X1236060Y1334090D01*
X1236170Y1333800D01*
X1236250Y1333500D01*
X1236310Y1333200D01*
X1236340Y1332900D01*
X1236350Y1332600D01*
X1236340Y1332300D01*
X1236310Y1332000D01*
X1236250Y1331680D01*
X1236180Y1331410D01*
X1236080Y1331120D01*
X1235960Y1330840D01*
X1235810Y1330580D01*
X1235650Y1330320D01*
X1235470Y1330080D01*
X1235250Y1329840D01*
X1235040Y1329650D01*
X1234800Y1329470D01*
X1234540Y1329300D01*
X1234270Y1329160D01*
X1233990Y1329040D01*
X1233700Y1328930D01*
X1233400Y1328850D01*
X1233100Y1328780D01*
X1232790Y1328740D01*
X1232480Y1328710D01*
X1232140Y1328700D01*
X1231870Y1328720D01*
X1231570Y1328740D01*
X1231280Y1328790D01*
X1230980Y1328850D01*
X1230690Y1328920D01*
X1230400Y1329000D01*
X1230120Y1329090D01*
X1229830Y1329190D01*
X1229550Y1329300D01*
X1229270Y1329410D01*
X1228990Y1329530D01*
X1228700Y1329640D01*
Y1329200D01*
X1227650D01*
G37*
G36*
G01X1222970Y1329760D02*
Y1329020D01*
X1218910D01*
Y1329760D01*
X1219360D01*
G03X1219750Y1330140I2J388D01*
G01Y1339180D01*
G03X1219360Y1339570I-389J1D01*
G01X1217050D01*
G03X1216780Y1339460I1J-389D01*
G01X1215740Y1338430D01*
X1216120Y1340850D01*
X1225760D01*
X1226140Y1338430D01*
X1225100Y1339460D01*
G03X1224820Y1339570I-271J-280D01*
G01X1222520D01*
G03X1222130Y1339180I-2J-388D01*
G01Y1330140D01*
G03X1222520Y1329760I387J7D01*
G01X1222970D01*
G37*
G36*
G01X1203270Y1329920D02*
X1204020D01*
G03X1204420Y1330320I4J396D01*
G01Y1339620D01*
G03X1204020Y1340010I-395J-5D01*
G01X1203220D01*
Y1340890D01*
X1206870D01*
G02X1207170Y1340750I-2J-396D01*
G01X1212840Y1334180D01*
Y1339540D01*
G03X1212450Y1339930I-394J-4D01*
G01X1211480D01*
Y1340890D01*
X1215470D01*
Y1339930D01*
X1214630D01*
G03X1214230Y1339540I-4J-396D01*
G01Y1329020D01*
X1213620D01*
G02X1213320Y1329150I-8J394D01*
G01X1206450Y1337100D01*
Y1330320D01*
G03X1206850Y1329920I397J-3D01*
G01X1207440D01*
Y1329020D01*
X1203270D01*
Y1329920D01*
G37*
G36*
G01X1227650Y1329200D02*
X1226660Y1332860D01*
X1227120Y1332980D01*
X1227310Y1332710D01*
X1227500Y1332450D01*
X1227700Y1332200D01*
X1227910Y1331960D01*
X1228120Y1331730D01*
X1228340Y1331520D01*
X1228570Y1331320D01*
X1228820Y1331150D01*
X1229090Y1331000D01*
X1229360Y1330890D01*
X1229650Y1330800D01*
X1229960Y1330720D01*
X1230320Y1330650D01*
X1230580Y1330600D01*
X1230900Y1330540D01*
X1231210Y1330490D01*
X1231530Y1330460D01*
X1231840Y1330450D01*
X1232150Y1330460D01*
X1232460Y1330500D01*
X1232760Y1330580D01*
X1233080Y1330710D01*
X1233330Y1330860D01*
X1233580Y1331060D01*
X1233800Y1331300D01*
X1233980Y1331680D01*
X1234020Y1331870D01*
X1234010Y1332180D01*
X1233930Y1332500D01*
X1233790Y1332800D01*
X1233530Y1333140D01*
X1233370Y1333280D01*
X1233110Y1333450D01*
X1232830Y1333580D01*
X1232530Y1333680D01*
X1232100Y1333790D01*
X1231920Y1333820D01*
X1231610Y1333880D01*
X1231310Y1333930D01*
X1231000Y1333970D01*
X1230700Y1334010D01*
X1230400Y1334060D01*
X1230090Y1334110D01*
X1229790Y1334160D01*
X1229480Y1334220D01*
X1229290Y1334270D01*
X1228870Y1334390D01*
X1228570Y1334500D01*
X1228280Y1334620D01*
X1228000Y1334770D01*
X1227750Y1334950D01*
X1227540Y1335150D01*
X1227340Y1335390D01*
X1227190Y1335650D01*
X1227060Y1335930D01*
X1226970Y1336230D01*
X1226900Y1336550D01*
X1226850Y1336870D01*
X1226830Y1337350D01*
Y1337530D01*
X1226840Y1337850D01*
X1226880Y1338170D01*
X1226950Y1338490D01*
X1227040Y1338790D01*
X1227150Y1339070D01*
X1227290Y1339340D01*
X1227470Y1339610D01*
X1227660Y1339820D01*
X1227890Y1340030D01*
X1228140Y1340220D01*
X1228400Y1340380D01*
X1228680Y1340530D01*
X1228980Y1340660D01*
X1229420Y1340810D01*
X1229580Y1340860D01*
X1229880Y1340930D01*
X1230190Y1340990D01*
X1230490Y1341030D01*
X1230800Y1341060D01*
X1231100Y1341070D01*
X1231420Y1341060D01*
X1231730Y1341040D01*
X1232040Y1341010D01*
X1232350Y1340940D01*
X1232650Y1340860D01*
X1232880Y1340780D01*
X1233210Y1340630D01*
X1233490Y1340480D01*
X1233760Y1340320D01*
Y1341080D01*
X1234630D01*
X1235400Y1337730D01*
X1235120Y1337440D01*
X1234880Y1337630D01*
X1234640Y1337810D01*
X1234400Y1337990D01*
X1234150Y1338160D01*
X1233900Y1338320D01*
X1233630Y1338480D01*
X1233370Y1338600D01*
X1233090Y1338720D01*
X1232810Y1338820D01*
X1232520Y1338910D01*
X1232230Y1338980D01*
X1231930Y1339040D01*
X1231750Y1339060D01*
X1231340Y1339100D01*
X1231040D01*
X1230740Y1339090D01*
X1230480Y1339060D01*
X1230130Y1338990D01*
X1229840Y1338890D01*
X1229580Y1338740D01*
X1229450Y1338610D01*
X1229240Y1338230D01*
X1229170Y1337910D01*
X1229180Y1337600D01*
X1229260Y1337350D01*
X1229440Y1337080D01*
X1229680Y1336900D01*
X1229960Y1336750D01*
X1230260Y1336650D01*
X1230550Y1336570D01*
X1230890Y1336500D01*
X1231190Y1336450D01*
X1231480Y1336400D01*
X1231780Y1336370D01*
X1232060Y1336330D01*
X1232360Y1336280D01*
X1232640Y1336230D01*
X1232930Y1336160D01*
X1233220Y1336090D01*
X1233510Y1336010D01*
X1233790Y1335920D01*
X1234100Y1335820D01*
X1234380Y1335710D01*
X1234660Y1335590D01*
X1234930Y1335440D01*
X1235170Y1335280D01*
X1235380Y1335110D01*
X1235600Y1334870D01*
X1235780Y1334630D01*
X1235930Y1334370D01*
X1236060Y1334090D01*
X1236170Y1333800D01*
X1236250Y1333500D01*
X1236310Y1333200D01*
X1236340Y1332900D01*
X1236350Y1332600D01*
X1236340Y1332300D01*
X1236310Y1332000D01*
X1236250Y1331680D01*
X1236180Y1331410D01*
X1236080Y1331120D01*
X1235960Y1330840D01*
X1235810Y1330580D01*
X1235650Y1330320D01*
X1235470Y1330080D01*
X1235250Y1329840D01*
X1235040Y1329650D01*
X1234800Y1329470D01*
X1234540Y1329300D01*
X1234270Y1329160D01*
X1233990Y1329040D01*
X1233700Y1328930D01*
X1233400Y1328850D01*
X1233100Y1328780D01*
X1232790Y1328740D01*
X1232480Y1328710D01*
X1232140Y1328700D01*
X1231870Y1328720D01*
X1231570Y1328740D01*
X1231280Y1328790D01*
X1230980Y1328850D01*
X1230690Y1328920D01*
X1230400Y1329000D01*
X1230120Y1329090D01*
X1229830Y1329190D01*
X1229550Y1329300D01*
X1229270Y1329410D01*
X1228990Y1329530D01*
X1228700Y1329640D01*
Y1329200D01*
X1227650D01*
G37*
G54D10*
G01X1079000Y967000D02*
G02Y943000I0J-12000D01*
G02Y967000I0J12000D01*
G01X1065250Y1292000D02*
Y1302000D01*
X1068370D01*
X1069370Y1301500D01*
X1070000Y1300830D01*
X1070250Y1299500D01*
X1070000Y1298170D01*
X1069250Y1297330D01*
X1068370Y1296830D01*
X1065250D01*
G01X1068370D02*
X1070250Y1292000D01*
G01X1074380Y1296500D02*
X1078380D01*
X1078000Y1297670D01*
X1077380Y1298330D01*
X1076500Y1298670D01*
X1075630Y1298500D01*
X1074870Y1298000D01*
X1074380Y1296830D01*
X1074120Y1295830D01*
Y1294830D01*
X1074380Y1293830D01*
X1075000Y1292830D01*
X1075750Y1292170D01*
X1076630Y1292000D01*
X1077500Y1292330D01*
X1078380Y1293330D01*
G01X1082500Y1298670D02*
X1084750Y1292000D01*
X1087000Y1298670D01*
G01X1110250Y1291670D02*
X1110000Y1291830D01*
Y1292170D01*
X1110250Y1292330D01*
X1110500Y1292170D01*
Y1291830D01*
X1110250Y1291670D01*
G01Y1296170D02*
X1110000Y1296330D01*
Y1296670D01*
X1110250Y1296830D01*
X1110500Y1296670D01*
Y1296330D01*
X1110250Y1296170D01*
G01X1118750Y1292000D02*
Y1302000D01*
X1117250Y1300000D01*
G01Y1292000D02*
X1120250D01*
G01X1127250Y1291670D02*
X1127000Y1291830D01*
Y1292170D01*
X1127250Y1292330D01*
X1127500Y1292170D01*
Y1291830D01*
X1127250Y1291670D01*
G01X1133000Y1294000D02*
X1133750Y1292830D01*
X1134750Y1292170D01*
X1135880Y1292000D01*
X1136880Y1292170D01*
X1137880Y1293000D01*
X1138500Y1294000D01*
X1138620Y1295000D01*
X1138380Y1296170D01*
X1137500Y1297000D01*
X1136620Y1297330D01*
X1135500D01*
G01X1136620D02*
X1137370Y1297830D01*
X1138000Y1298670D01*
X1138250Y1299670D01*
X1138000Y1300670D01*
X1137370Y1301500D01*
X1136250Y1302000D01*
X1135130Y1301830D01*
X1134000Y1301170D01*
G01X1065000Y1308000D02*
Y1318000D01*
X1068250Y1309670D01*
X1071500Y1318000D01*
Y1308000D01*
G01X1076750D02*
X1076000Y1308170D01*
X1075250Y1308830D01*
X1074750Y1310000D01*
X1074500Y1311330D01*
X1074750Y1312670D01*
X1075250Y1313830D01*
X1076000Y1314500D01*
X1076750Y1314670D01*
X1077500Y1314500D01*
X1078250Y1313830D01*
X1078750Y1312670D01*
X1078880Y1311330D01*
X1078750Y1310000D01*
X1078250Y1308830D01*
X1077500Y1308170D01*
X1076750Y1308000D01*
G01X1087500Y1318000D02*
Y1308000D01*
G01Y1309500D02*
X1087000Y1308670D01*
X1086250Y1308170D01*
X1085380Y1308000D01*
X1084380Y1308330D01*
X1083630Y1309170D01*
X1083120Y1310170D01*
X1083000Y1311330D01*
X1083120Y1312500D01*
X1083630Y1313500D01*
X1084380Y1314330D01*
X1085380Y1314670D01*
X1086250Y1314500D01*
X1086870Y1314170D01*
X1087500Y1313500D01*
G01X1091880Y1312500D02*
X1095880D01*
X1095500Y1313670D01*
X1094880Y1314330D01*
X1094000Y1314670D01*
X1093130Y1314500D01*
X1092370Y1314000D01*
X1091880Y1312830D01*
X1091620Y1311830D01*
Y1310830D01*
X1091880Y1309830D01*
X1092500Y1308830D01*
X1093250Y1308170D01*
X1094130Y1308000D01*
X1095000Y1308330D01*
X1095880Y1309330D01*
G01X1102250Y1308000D02*
Y1318000D01*
G01X1110750Y1307670D02*
X1110500Y1307830D01*
Y1308170D01*
X1110750Y1308330D01*
X1111000Y1308170D01*
Y1307830D01*
X1110750Y1307670D01*
G01Y1312170D02*
X1110500Y1312330D01*
Y1312670D01*
X1110750Y1312830D01*
X1111000Y1312670D01*
Y1312330D01*
X1110750Y1312170D01*
G01X1122000Y1317170D02*
X1121250Y1317670D01*
X1120380Y1318000D01*
X1119380D01*
X1118250Y1317500D01*
X1117380Y1316670D01*
X1116750Y1315670D01*
X1116250Y1314000D01*
X1116120Y1312500D01*
X1116380Y1311000D01*
X1116750Y1310000D01*
X1117500Y1309000D01*
X1118380Y1308330D01*
X1119250Y1308000D01*
X1120120D01*
X1121000Y1308330D01*
X1121750Y1308830D01*
X1122380Y1309500D01*
G01X1130500Y1317170D02*
X1129750Y1317670D01*
X1128880Y1318000D01*
X1127880D01*
X1126750Y1317500D01*
X1125880Y1316670D01*
X1125250Y1315670D01*
X1124750Y1314000D01*
X1124620Y1312500D01*
X1124880Y1311000D01*
X1125250Y1310000D01*
X1126000Y1309000D01*
X1126880Y1308330D01*
X1127750Y1308000D01*
X1128620D01*
X1129500Y1308330D01*
X1130250Y1308830D01*
X1130880Y1309500D01*
G01X1136250Y1308000D02*
Y1318000D01*
X1134750Y1316000D01*
G01Y1308000D02*
X1137750D01*
G01X1142000Y1310000D02*
X1142750Y1308830D01*
X1143750Y1308170D01*
X1144880Y1308000D01*
X1145880Y1308170D01*
X1146880Y1309000D01*
X1147500Y1310000D01*
X1147620Y1311000D01*
X1147380Y1312170D01*
X1146500Y1313000D01*
X1145620Y1313330D01*
X1144500D01*
G01X1145620D02*
X1146370Y1313830D01*
X1147000Y1314670D01*
X1147250Y1315670D01*
X1147000Y1316670D01*
X1146370Y1317500D01*
X1145250Y1318000D01*
X1144130Y1317830D01*
X1143000Y1317170D01*
G01X1151380Y1314670D02*
X1155120Y1308000D01*
G01Y1314670D02*
X1151380Y1308000D01*
G01X1159880Y1314670D02*
X1163620Y1308000D01*
G01Y1314670D02*
X1159880Y1308000D01*
G01X1172750D02*
X1167750D01*
Y1318000D01*
X1172750D01*
G01X1170750Y1313170D02*
X1167750D01*
G01X1175500Y1308000D02*
Y1318000D01*
X1178750Y1309670D01*
X1182000Y1318000D01*
Y1308000D01*
G01X1185630Y1311330D02*
X1188870D01*
G01X1195500Y1308000D02*
X1195750Y1310170D01*
X1196130Y1312000D01*
X1196620Y1313670D01*
X1197250Y1315500D01*
X1198250Y1318000D01*
X1193250D01*
G01X1201620Y1308000D02*
X1206880Y1318000D01*
G01X1201620D02*
X1206880Y1308000D01*
G01X1210000D02*
Y1318000D01*
X1212500D01*
X1213500Y1317500D01*
X1214250Y1316830D01*
X1214880Y1315830D01*
X1215380Y1314670D01*
X1215500Y1313000D01*
X1215380Y1311330D01*
X1214880Y1310170D01*
X1214250Y1309170D01*
X1213500Y1308500D01*
X1212500Y1308000D01*
X1210000D01*
G01X1219630Y1311330D02*
X1222870D01*
G01X1229500Y1308000D02*
X1229750Y1310170D01*
X1230130Y1312000D01*
X1230620Y1313670D01*
X1231250Y1315500D01*
X1232250Y1318000D01*
X1227250D01*
G01X1238000Y1308000D02*
X1238250Y1310170D01*
X1238630Y1312000D01*
X1239120Y1313670D01*
X1239750Y1315500D01*
X1240750Y1318000D01*
X1235750D01*
G01X1244620Y1309170D02*
X1245500Y1308330D01*
X1246500Y1308000D01*
X1247500Y1308330D01*
X1248370Y1309330D01*
X1249000Y1310830D01*
X1249250Y1312330D01*
Y1314170D01*
X1249000Y1315670D01*
X1248370Y1317000D01*
X1247620Y1317670D01*
X1246750Y1318000D01*
X1245750Y1317670D01*
X1245000Y1317000D01*
X1244500Y1316000D01*
X1244250Y1314670D01*
X1244500Y1313500D01*
X1245130Y1312330D01*
X1245880Y1311670D01*
X1246750Y1311500D01*
X1247750Y1311830D01*
X1248500Y1312670D01*
X1249250Y1314170D01*
G01X1252500Y1310000D02*
X1253250Y1308830D01*
X1254250Y1308170D01*
X1255380Y1308000D01*
X1256380Y1308170D01*
X1257380Y1309000D01*
X1258000Y1310000D01*
X1258120Y1311000D01*
X1257880Y1312170D01*
X1257000Y1313000D01*
X1256120Y1313330D01*
X1255000D01*
G01X1256120D02*
X1256870Y1313830D01*
X1257500Y1314670D01*
X1257750Y1315670D01*
X1257500Y1316670D01*
X1256870Y1317500D01*
X1255750Y1318000D01*
X1254630Y1317830D01*
X1253500Y1317170D01*
G01X1094000Y1251500D02*
G02Y1227500I0J-12000D01*
G02Y1251500I0J12000D01*
G01X1153500Y1128000D02*
Y1120830D01*
X1154000Y1119330D01*
X1155000Y1118330D01*
X1156250Y1118000D01*
X1157500Y1118330D01*
X1158500Y1119330D01*
X1159000Y1120830D01*
Y1128000D01*
G01X1164750Y1118000D02*
Y1128000D01*
X1163250Y1126000D01*
G01Y1118000D02*
X1166250D01*
G01X1177000Y1088250D02*
X1171500D01*
Y1093750D01*
G01X1173000Y1199500D02*
Y1209000D01*
X1173500Y1209500D01*
G01X1191000D02*
Y1199500D01*
G01X1171500Y1156750D02*
Y1162250D01*
X1177000D01*
G01X1240000Y1088250D02*
X1245500D01*
Y1093750D01*
G01X1205250Y1198500D02*
Y1203000D01*
X1202750Y1208500D01*
G01X1207750D02*
X1205250Y1203000D01*
G01X1213750Y1198500D02*
Y1208500D01*
X1212250Y1206500D01*
G01Y1198500D02*
X1215250D01*
G01X1245500Y1156750D02*
Y1158750D01*
X1242000Y1162250D01*
X1240000D01*
G01X1278500Y1160500D02*
Y1164500D01*
X1279000Y1165000D01*
G01X1266480Y1236000D02*
X1268900Y1244900D01*
X1271320Y1236000D01*
G01X1270450Y1239110D02*
X1267350D01*
G01X1275500Y1236000D02*
Y1244900D01*
X1274340Y1243120D01*
G01Y1236000D02*
X1276660D01*
G01X1268500Y1372500D02*
X1463000D01*
Y1307000D01*
X1283000D01*
Y1248000D01*
X1268000D01*
Y1372500D01*
X1271500D01*
G01X1318250Y1146000D02*
Y1150500D01*
X1315750Y1156000D01*
G01X1320750D02*
X1318250Y1150500D01*
G01X1324370Y1154330D02*
X1325130Y1155330D01*
X1326000Y1155830D01*
X1327000Y1156000D01*
X1328250Y1155670D01*
X1329130Y1154830D01*
X1329380Y1153830D01*
X1329250Y1152830D01*
X1328750Y1152000D01*
X1326250Y1150330D01*
X1325130Y1149170D01*
X1324370Y1147500D01*
X1324120Y1146000D01*
X1329380D01*
G01X1330000Y1223500D02*
Y1191500D01*
G01X1307000Y1165000D02*
Y1160500D01*
G01X1382500Y1171000D02*
X1350500D01*
G01Y1244000D02*
X1382500D01*
G01X1403000Y1223500D02*
Y1191500D01*
G01X1408250Y1207000D02*
X1408880Y1206000D01*
X1409620Y1205330D01*
X1410500Y1205000D01*
X1411500Y1205330D01*
X1412250Y1206000D01*
X1413000Y1207000D01*
X1413250Y1208330D01*
Y1215000D01*
G01X1419250Y1205000D02*
Y1215000D01*
X1417750Y1213000D01*
G01Y1205000D02*
X1420750D01*
G01X1451000Y967000D02*
G02Y943000I0J-12000D01*
G02Y967000I0J12000D01*
G54D11*
G01X1249240Y1164000D02*
G03I-2240J0D01*
G54D12*
G01X1059960Y1376000D02*
Y937000D01*
X1468990D01*
Y1376000D01*
X1059960D01*
G54D13*
G01X1315000Y1137150D02*
X1310780Y1132500D01*
X1280500D01*
X1275500Y1127500D01*
Y1065500D01*
X1245000Y1035000D01*
X1220000D01*
X1207500Y1047500D01*
Y1066500D01*
X1199000Y1075000D01*
X1151000D01*
X1149500Y1076500D01*
Y1154500D01*
X1165000Y1170000D01*
Y1222000D01*
X1166500Y1223500D01*
X1298000D01*
Y1240500D01*
X1315000D01*
Y1137150D01*
M02*
