G04 ================== begin FILE IDENTIFICATION RECORD ==================*
G04 Layout Name:  CC13xxEM-7XD-7793.brd*
G04 Film Name:    soldmask_top*
G04 File Format:  Gerber RS274X*
G04 File Origin:  Cadence Allegro 16.6-S026*
G04 Origin Date:  Mon Jan 19 15:46:38 2015*
G04 *
G04 Layer:  PIN/SOLDERMASK_TOP*
G04 Layer:  BOARD GEOMETRY/OUTLINE*
G04 *
G04 Offset:    (0.000 0.000)*
G04 Mirror:    No*
G04 Mode:      Positive*
G04 Rotation:  0*
G04 FullContactRelief:  No*
G04 UndefLineWidth:     0.020*
G04 ================== end FILE IDENTIFICATION RECORD ====================*
%FSLAX44Y44*MOMM*%
%IR0*IPPOS*OFA0.00000B0.00000*MIA0B0*SFA1.00000B1.00000*%
%AMMACRO20*
4,1,41,-.525,0.0,
-.525,-.225,
-.521582,-.264071,
-.511431,-.301955,
-.494856,-.3375,
-.47236,-.369627,
-.444627,-.39736,
-.4125,-.419856,
-.376955,-.436431,
-.339071,-.446582,
-.3,-.45,
.3,-.45,
.339071,-.446582,
.376955,-.436431,
.4125,-.419856,
.444627,-.39736,
.47236,-.369627,
.494856,-.3375,
.511431,-.301955,
.521582,-.264071,
.525,-.225,
.525,.225,
.521582,.264071,
.511431,.301955,
.494856,.3375,
.47236,.369627,
.444627,.39736,
.4125,.419856,
.376955,.436431,
.339071,.446582,
.3,.45,
-.3,.45,
-.339071,.446582,
-.376955,.436431,
-.4125,.419856,
-.444627,.39736,
-.47236,.369627,
-.494856,.3375,
-.511431,.301955,
-.521582,.264071,
-.525,.225,
-.525,0.0,
0.0*
%
%ADD20MACRO20*%
%AMMACRO27*
4,1,41,0.0,-1.075,
.538,-1.075,
.631328,-1.066747,
.721806,-1.042414,
.806683,-1.002739,
.883381,-.948927,
.94957,-.882615,
1.003239,-.805817,
1.042756,-.720866,
1.066921,-.630343,
1.075,-.538,
1.075,.538,
1.066747,.631328,
1.042414,.721806,
1.002739,.806683,
.948927,.883381,
.882615,.94957,
.805817,1.003239,
.720866,1.042756,
.630343,1.066921,
.538,1.075,
-.538,1.075,
-.631328,1.066747,
-.721806,1.042414,
-.806683,1.002739,
-.883381,.948927,
-.94957,.882615,
-1.003239,.805817,
-1.042756,.720866,
-1.066921,.630343,
-1.075,.538,
-1.075,-.538,
-1.066747,-.631328,
-1.042414,-.721806,
-1.002739,-.806683,
-.948927,-.883381,
-.882615,-.94957,
-.805817,-1.003239,
-.720866,-1.042756,
-.630343,-1.066921,
-.538,-1.075,
0.0,-1.075,
0.0*
%
%ADD27MACRO27*%
%ADD15O,1.X.4*%
%ADD14O,.4X1.*%
%AMMACRO24*
4,1,41,.375,0.0,
.375,.194,
.372583,.221129,
.365491,.247426,
.353942,.272091,
.338284,.294377,
.318994,.313605,
.296659,.329191,
.271956,.340662,
.245636,.34767,
.219,.35,
-.219,.35,
-.246129,.347583,
-.272426,.340491,
-.297091,.328942,
-.319377,.313284,
-.338605,.293994,
-.354191,.271659,
-.365662,.246956,
-.37267,.220636,
-.375,.194,
-.375,-.194,
-.372583,-.221129,
-.365491,-.247426,
-.353942,-.272091,
-.338284,-.294377,
-.318994,-.313605,
-.296659,-.329191,
-.271956,-.340662,
-.245636,-.34767,
-.219,-.35,
.219,-.35,
.246129,-.347583,
.272426,-.340491,
.297091,-.328942,
.319377,-.313284,
.338605,-.293994,
.354191,-.271659,
.365662,-.246956,
.37267,-.220636,
.375,-.194,
.375,0.0,
0.0*
%
%ADD24MACRO24*%
%AMMACRO23*
4,1,41,0.0,-.375,
.194,-.375,
.221129,-.372583,
.247426,-.365491,
.272091,-.353942,
.294377,-.338284,
.313605,-.318994,
.329191,-.296659,
.340662,-.271956,
.34767,-.245636,
.35,-.219,
.35,.219,
.347583,.246129,
.340491,.272426,
.328942,.297091,
.313284,.319377,
.293994,.338605,
.271659,.354191,
.246956,.365662,
.220636,.37267,
.194,.375,
-.194,.375,
-.221129,.372583,
-.247426,.365491,
-.272091,.353942,
-.294377,.338284,
-.313605,.318994,
-.329191,.296659,
-.340662,.271956,
-.34767,.245636,
-.35,.219,
-.35,-.219,
-.347583,-.246129,
-.340491,-.272426,
-.328942,-.297091,
-.313284,-.319377,
-.293994,-.338605,
-.271659,-.354191,
-.246956,-.365662,
-.220636,-.37267,
-.194,-.375,
0.0,-.375,
0.0*
%
%ADD23MACRO23*%
%AMMACRO22*
4,1,40,.325,.16,
.325,-.16,
.322569,-.187784,
.315351,-.214723,
.303564,-.24,
.287567,-.262846,
.267846,-.282567,
.245,-.298564,
.219723,-.310351,
.192784,-.317569,
.165,-.32,
-.165,-.32,
-.192784,-.317569,
-.219723,-.310351,
-.245,-.298564,
-.267846,-.282567,
-.287567,-.262846,
-.303564,-.24,
-.315351,-.214723,
-.322569,-.187784,
-.325,-.16,
-.325,.16,
-.322569,.187784,
-.315351,.214723,
-.303564,.24,
-.287567,.262846,
-.267846,.282567,
-.245,.298564,
-.219723,.310351,
-.192784,.317569,
-.165,.32,
.165,.32,
.192784,.317569,
.219723,.310351,
.245,.298564,
.267846,.282567,
.287567,.262846,
.303564,.24,
.315351,.214723,
.322569,.187784,
.325,.16,
0.0*
%
%ADD22MACRO22*%
%AMMACRO12*
4,1,40,.16,-.325,
-.16,-.325,
-.187784,-.322569,
-.214723,-.315351,
-.24,-.303564,
-.262846,-.287567,
-.282567,-.267846,
-.298564,-.245,
-.310351,-.219723,
-.317569,-.192784,
-.32,-.165,
-.32,.165,
-.317569,.192784,
-.310351,.219723,
-.298564,.245,
-.282567,.267846,
-.262846,.287567,
-.24,.303564,
-.214723,.315351,
-.187784,.322569,
-.16,.325,
.16,.325,
.187784,.322569,
.214723,.315351,
.24,.303564,
.262846,.287567,
.282567,.267846,
.298564,.245,
.310351,.219723,
.317569,.192784,
.32,.165,
.32,-.165,
.317569,-.192784,
.310351,-.219723,
.298564,-.245,
.282567,-.267846,
.262846,-.287567,
.24,-.303564,
.214723,-.315351,
.187784,-.322569,
.16,-.325,
0.0*
%
%ADD12MACRO12*%
%ADD26R,1.15X1.15*%
%ADD28C,1.951*%
%ADD16R,5.4X5.4*%
%ADD11C,1.699*%
%AMMACRO21*
4,1,44,-.749,-.274,
-.749,.274,
-.74517,.321783,
-.7331,.368174,
-.713158,.411765,
-.68595,.451231,
-.652302,.485372,
-.613236,.513152,
-.56994,.533726,
-.523729,.546469,
-.476007,.550995,
-.475,.551,
.475,.551,
.522738,.54665,
.568995,.534076,
.612366,.51366,
.651534,.486024,
.685307,.452006,
.712659,.41264,
.732761,.369122,
.745,.322775,
.749005,.275007,
.749,.274,
.749,-.274,
.74517,-.321783,
.7331,-.368174,
.713158,-.411765,
.68595,-.451231,
.652302,-.485372,
.613236,-.513152,
.56994,-.533726,
.523729,-.546469,
.476007,-.550995,
.475,-.551,
-.475,-.551,
-.522738,-.54665,
-.568995,-.534076,
-.612366,-.51366,
-.651534,-.486024,
-.685307,-.452006,
-.712659,-.41264,
-.732761,-.369122,
-.745,-.322775,
-.749005,-.275007,
-.749,-.274,
0.0*
%
%ADD21MACRO21*%
%AMMACRO19*
4,1,41,0.0,-.525,
.225,-.525,
.264071,-.521582,
.301955,-.511431,
.3375,-.494856,
.369627,-.47236,
.39736,-.444627,
.419856,-.4125,
.436431,-.376955,
.446582,-.339071,
.45,-.3,
.45,.3,
.446582,.339071,
.436431,.376955,
.419856,.4125,
.39736,.444627,
.369627,.47236,
.3375,.494856,
.301955,.511431,
.264071,.521582,
.225,.525,
-.225,.525,
-.264071,.521582,
-.301955,.511431,
-.3375,.494856,
-.369627,.47236,
-.39736,.444627,
-.419856,.4125,
-.436431,.376955,
-.446582,.339071,
-.45,.3,
-.45,-.3,
-.446582,-.339071,
-.436431,-.376955,
-.419856,-.4125,
-.39736,-.444627,
-.369627,-.47236,
-.3375,-.494856,
-.301955,-.511431,
-.264071,-.521582,
-.225,-.525,
0.0,-.525,
0.0*
%
%ADD19MACRO19*%
%AMMACRO18*
4,1,40,-.975,.288,
-.975,-.288,
-.970545,-.337916,
-.957491,-.386301,
-.936232,-.431683,
-.907416,-.472684,
-.871918,-.508059,
-.830817,-.536732,
-.785361,-.557833,
-.736931,-.570719,
-.688,-.575,
.688,-.575,
.737916,-.570545,
.786301,-.557491,
.831683,-.536232,
.872684,-.507416,
.908059,-.471918,
.936732,-.430817,
.957833,-.385361,
.970719,-.336931,
.975,-.288,
.975,.288,
.970545,.337916,
.957491,.386301,
.936232,.431683,
.907416,.472684,
.871918,.508059,
.830817,.536732,
.785361,.557833,
.736931,.570719,
.688,.575,
-.688,.575,
-.737916,.570545,
-.786301,.557491,
-.831683,.536232,
-.872684,.507416,
-.908059,.471918,
-.936732,.430817,
-.957833,.385361,
-.970719,.336931,
-.975,.288,
0.0*
%
%ADD18MACRO18*%
%AMMACRO17*
4,1,40,-.16,.325,
.16,.325,
.187784,.322569,
.214723,.315351,
.24,.303564,
.262846,.287567,
.282567,.267846,
.298564,.245,
.310351,.219723,
.317569,.192784,
.32,.165,
.32,-.165,
.317569,-.192784,
.310351,-.219723,
.298564,-.245,
.282567,-.267846,
.262846,-.287567,
.24,-.303564,
.214723,-.315351,
.187784,-.322569,
.16,-.325,
-.16,-.325,
-.187784,-.322569,
-.214723,-.315351,
-.24,-.303564,
-.262846,-.287567,
-.282567,-.267846,
-.298564,-.245,
-.310351,-.219723,
-.317569,-.192784,
-.32,-.165,
-.32,.165,
-.317569,.192784,
-.310351,.219723,
-.298564,.245,
-.282567,.267846,
-.262846,.287567,
-.24,.303564,
-.214723,.315351,
-.187784,.322569,
-.16,.325,
0.0*
%
%ADD17MACRO17*%
%AMMACRO13*
4,1,40,-.325,-.16,
-.325,.16,
-.322569,.187784,
-.315351,.214723,
-.303564,.24,
-.287567,.262846,
-.267846,.282567,
-.245,.298564,
-.219723,.310351,
-.192784,.317569,
-.165,.32,
.165,.32,
.192784,.317569,
.219723,.310351,
.245,.298564,
.267846,.282567,
.287567,.262846,
.303564,.24,
.315351,.214723,
.322569,.187784,
.325,.16,
.325,-.16,
.322569,-.187784,
.315351,-.214723,
.303564,-.24,
.287567,-.262846,
.267846,-.282567,
.245,-.298564,
.219723,-.310351,
.192784,-.317569,
.165,-.32,
-.165,-.32,
-.192784,-.317569,
-.219723,-.310351,
-.245,-.298564,
-.267846,-.282567,
-.287567,-.262846,
-.303564,-.24,
-.315351,-.214723,
-.322569,-.187784,
-.325,-.16,
0.0*
%
%ADD13MACRO13*%
%ADD10O,1.15X1.15*%
%AMMACRO25*
4,1,45,0.0,-.7,
.312,-.7,
.361931,-.695719,
.410361,-.682833,
.455817,-.661732,
.496918,-.633059,
.532416,-.597684,
.561232,-.556683,
.582491,-.511301,
.595545,-.462916,
.6,-.413,
.6,-.412,
.6,.412,
.595719,.461931,
.582833,.510361,
.561732,.555817,
.533059,.596918,
.497684,.632416,
.456683,.661232,
.411301,.682491,
.362916,.695545,
.313,.7,
.312,.7,
-.312,.7,
-.361931,.695719,
-.410361,.682833,
-.455817,.661732,
-.496918,.633059,
-.532416,.597684,
-.561232,.556683,
-.582491,.511301,
-.595545,.462916,
-.6,.413,
-.6,.412,
-.6,-.412,
-.595719,-.461931,
-.582833,-.510361,
-.561732,-.555817,
-.533059,-.596918,
-.497684,-.632416,
-.456683,-.661232,
-.411301,-.682491,
-.362916,-.695545,
-.313,-.7,
-.312,-.7,
0.0,-.7,
0.0*
%
%ADD25MACRO25*%
%ADD29C,.02*%
G75*
%LPD*%
G75*
G54D10*
X1079000Y955000D03*
X1094000Y1239500D03*
X1451000Y955000D03*
G54D11*
X1113020Y969830D03*
Y1115880D03*
X1417820Y969830D03*
Y1115880D03*
G54D20*
X1241500Y1063000D03*
X1230000D03*
X1241500Y1077000D03*
X1230000D03*
X1253000Y1063000D03*
Y1077000D03*
G54D21*
X1216000Y1055000D03*
Y1071000D03*
G54D12*
X1155000Y1086000D03*
Y1094000D03*
X1164000Y1086000D03*
Y1094000D03*
X1197000Y1206500D03*
Y1214500D03*
X1220000Y1188000D03*
Y1196000D03*
X1271500Y1075500D03*
Y1083500D03*
X1263000Y1075500D03*
Y1083500D03*
X1286000Y1207500D03*
Y1215500D03*
G54D13*
X1156000Y1153000D03*
X1164000D03*
X1230000Y1171000D03*
X1238000D03*
X1294500Y1207500D03*
X1302500D03*
X1310500D03*
X1318500D03*
G54D22*
X1246000Y1179000D03*
X1238000D03*
X1266500Y1128000D03*
X1258500D03*
X1266500Y1139500D03*
X1258500D03*
X1263000Y1158000D03*
X1255000D03*
X1290500Y1140000D03*
X1263000Y1166000D03*
X1255000D03*
X1292000Y1186000D03*
X1284000D03*
X1298500Y1140000D03*
X1310500Y1224500D03*
X1302500D03*
G54D23*
X1229800Y1179000D03*
X1220000D03*
X1241000Y1207500D03*
X1250800D03*
X1277800D03*
X1268000D03*
X1312300Y1234500D03*
X1302500D03*
G54D14*
X1201000Y1090500D03*
X1196000D03*
X1191000D03*
X1186000D03*
X1181000D03*
Y1160000D03*
X1186000D03*
X1191000D03*
X1196000D03*
X1201000D03*
X1236000Y1090500D03*
X1231000D03*
X1226000D03*
X1221000D03*
X1216000D03*
X1211000D03*
X1206000D03*
Y1160000D03*
X1211000D03*
X1216000D03*
X1221000D03*
X1226000D03*
X1231000D03*
X1236000D03*
G54D24*
X1238000Y1197300D03*
Y1187500D03*
G54D15*
X1173750Y1097750D03*
Y1102750D03*
Y1107750D03*
Y1112750D03*
Y1117750D03*
Y1122750D03*
Y1127750D03*
Y1132750D03*
Y1137750D03*
Y1142750D03*
Y1147750D03*
Y1152750D03*
X1243250Y1112750D03*
Y1107750D03*
Y1102750D03*
Y1097750D03*
Y1152750D03*
Y1147750D03*
Y1142750D03*
Y1137750D03*
Y1132750D03*
Y1127750D03*
Y1122750D03*
Y1117750D03*
G54D25*
X1284000Y1151700D03*
Y1174000D03*
X1301300Y1151700D03*
Y1174000D03*
G54D16*
X1208500Y1125250D03*
G54D17*
X1197000Y1198000D03*
Y1190000D03*
X1230000Y1197000D03*
Y1189000D03*
X1233500Y1215000D03*
Y1207000D03*
X1259500Y1199500D03*
Y1207500D03*
X1310500Y1215500D03*
Y1207500D03*
G54D26*
X1275500Y1255500D03*
G54D18*
X1182000Y1192000D03*
Y1217000D03*
G54D27*
X1338500Y1179500D03*
Y1235500D03*
X1394500Y1179500D03*
Y1235500D03*
G54D19*
X1243000Y1048500D03*
X1229000D03*
X1376000Y1059000D03*
X1362000D03*
X1376000Y1070000D03*
X1362000D03*
G54D28*
X1366500Y1207500D03*
G54D29*
G01X1059960Y1376000D02*
Y937000D01*
X1468990D01*
Y1376000D01*
X1059960D01*
M02*
